<svg xmlns="http://www.w3.org/2000/svg" viewBox="0 0 500 500"><g id="freepik--Floor--inject-24"><path d="M412,248.63c-90.05-52-235.56-52-325,0S-2,384.91,88,436.9s235.56,52,325,0S502,300.62,412,248.63Z" style="fill:#f5f5f5"></path></g><g id="freepik--Shadows--inject-24"><path d="M294.52,301.56c15.81,9.12,41.36,9.12,57.06,0C359.44,297,363.34,291,363.31,285s-4-12-11.91-16.53c-15.81-9.13-41.36-9.13-57.07,0-7.85,4.57-11.76,10.55-11.72,16.53S286.61,297,294.52,301.56Z" style="fill:#e0e0e0"></path><path d="M81.88,332.22c26.87-15.51,70.31-15.51,97,0,23.6,13.71,26.22,34.94,8,50.4,14.72-.91,30,1.9,41.22,8.43,19.74,11.47,19.63,30.06-.23,41.53s-52,11.47-71.69,0c-15.7-9.13-18.83-22.76-9.46-33.72-22.62,3.27-47.52-.21-65.14-10.45C54.86,372.9,55,347.74,81.88,332.22Z" style="fill:#e0e0e0"></path></g><g id="freepik--Clouds--inject-24"><path d="M80.21,50.18c4.28-2.46,7.89-1.26,9,2.58a12.65,12.65,0,0,1,4.61-5.14c3.35-1.93,6.08-.38,6.09,3.47v1.76l4.49-2.59c2.35-1.36,4.25-.27,4.26,2.43A9.29,9.29,0,0,1,104.48,60L66.39,82c-2.34,1.36-4.25.27-4.26-2.42a9.34,9.34,0,0,1,4.23-7.34l4.5-2.6V66.4C70.83,60.44,75,53.18,80.21,50.18Z" style="fill:#e6e6e6"></path><path d="M117.54,64.59c3.07-1.77,5.66-.9,6.48,1.85a9.2,9.2,0,0,1,3.32-3.69c2.4-1.39,4.36-.27,4.36,2.49v1.27l3.23-1.87c1.68-1,3.05-.19,3.05,1.75a6.67,6.67,0,0,1-3,5.26L107.62,87.43c-1.69,1-3.06.2-3.06-1.74a6.67,6.67,0,0,1,3-5.26l3.22-1.87V76.23A14.82,14.82,0,0,1,117.54,64.59Z" style="fill:#e6e6e6"></path></g><g id="freepik--Globe--inject-24"><path d="M351,276.32c0,4-2.6,8-7.87,11.09-10.53,6.12-27.67,6.12-38.28,0-5.3-3.06-8-7.07-8-11.09h0v8h0c0,4,2.69,8,8,11.09,10.61,6.12,27.75,6.12,38.28,0,5.27-3.07,7.89-7.08,7.87-11.09h0v-8Z" style="fill:#407BFF"></path><path d="M304.86,287.41c10.61,6.12,27.75,6.12,38.28,0,5.27-3.06,7.89-7.07,7.87-11.09s-2.69-8-8-11.08c-10.61-6.13-27.75-6.13-38.28,0-5.27,3.06-7.89,7.07-7.87,11.08S299.56,284.35,304.86,287.41Z" style="fill:#407BFF"></path><path d="M351,276.32c0,4-2.6,8-7.87,11.09-10.53,6.12-27.67,6.12-38.28,0-5.3-3.06-8-7.07-8-11.09h0v8h0c0,4,2.69,8,8,11.09,10.61,6.12,27.75,6.12,38.28,0,5.27-3.07,7.89-7.08,7.87-11.09h0v-8Z" style="opacity:0.1"></path><path d="M304.86,287.41c10.61,6.12,27.75,6.12,38.28,0,5.27-3.06,7.89-7.07,7.87-11.09s-2.69-8-8-11.08c-10.61-6.13-27.75-6.13-38.28,0-5.27,3.06-7.89,7.07-7.87,11.08S299.56,284.35,304.86,287.41Z" style="opacity:0.30000000000000004"></path><path d="M310.36,280.2c7.55,4.36,19.75,4.36,27.25,0,3.75-2.18,5.62-5,5.6-7.9s-1.91-5.71-5.69-7.89c-7.55-4.36-19.75-4.36-27.25,0-3.75,2.18-5.62,5-5.6,7.89S306.58,278,310.36,280.2Z" style="opacity:0.2"></path><circle cx="324.81" cy="214.51" r="59.47" transform="translate(-56.54 292.5) rotate(-45)" style="fill:#455a64"></circle><path d="M269.83,198.84a36.15,36.15,0,0,0,1.57,5.74c.57,1.91,1.38,4.44.49,6.22A8.52,8.52,0,0,0,271,213a2.86,2.86,0,0,0,.39,2.23c.51.69,1.39,1,2,1.66,1.11,1.21.87,3.1,1.32,4.68A5.28,5.28,0,0,0,278,225c.67.24,1.65.18,1.8-.52s-.44-1-.92-1.39a11.64,11.64,0,0,1-2.93-3.13,1.67,1.67,0,0,1-.32-.81.61.61,0,0,1,.48-.64c.79.25,1,1.25,1.45,1.92a2.36,2.36,0,0,0,2.77.82,2.38,2.38,0,0,1,.56-.21,1.85,1.85,0,0,1,.7.06,10,10,0,0,1,4.36,1.74,14.83,14.83,0,0,1,2.37,3.05,5,5,0,0,0,3,2.28,11.31,11.31,0,0,0,3.21-.33,6.71,6.71,0,0,1,3.83.74,5.86,5.86,0,0,0-1.5,5.38c.14.6.39,1.17.48,1.78a15.44,15.44,0,0,1-.13,2.88,3,3,0,0,0,1,2.6c.87.63,2.3.54,2.77,1.51.17.34.16.74.3,1.09a2.48,2.48,0,0,0,2.35,1.24,6.41,6.41,0,0,1,2.77.36c1.29.69,1.6,2.35,2.23,3.67a6.44,6.44,0,0,0,1.51,2c.76.68,1.72,1.25,2.05,2.21a6.39,6.39,0,0,0,.46,1.65c.43.67,1.41.87,1.75,1.59a5.27,5.27,0,0,1,.2,1.05,2.92,2.92,0,0,0,1.93,2,8.62,8.62,0,0,0,2.86.36l3,0c.57,0,1.26-.06,1.51-.58a1.11,1.11,0,0,0-.65-1.35,7.87,7.87,0,0,0-1.6-.43,3.56,3.56,0,0,1-2.46-2.6,11.68,11.68,0,0,0-.22-1.18,7.67,7.67,0,0,0-.76-1.48,6.83,6.83,0,0,1-.73-4.5c.14-.8.44-1.58.51-2.4a8.77,8.77,0,0,0-.61-3.45,1.56,1.56,0,0,1-.1-.82,1.84,1.84,0,0,1,.65-.79c1.56-1.39.81-3.75.08-5.71-.28-.76.22-1.57.64-2.27s.77-1.65.24-2.27a1.9,1.9,0,0,0-1.55-.48,8.17,8.17,0,0,0-2.35.41c-1,.32-2,.82-2.94.48a5,5,0,0,1-1.82-1.68A2.1,2.1,0,0,0,308,228c-.33.13-.61.41-1,.44a1.27,1.27,0,0,1-1-.62,2.56,2.56,0,0,0-.88-.88c-.84-.38-1.87.45-2.71.07a4,4,0,0,1-.94-.86,5,5,0,0,0-3.07-.9,3.64,3.64,0,0,1-2.86-1.67,8.19,8.19,0,0,0,.23-1.54,1.55,1.55,0,0,0-2-1.28.77.77,0,0,0-.38.25c-.37.47.17,1.14.08,1.73s-1,.93-1.69,1a2.61,2.61,0,0,1-1.18-.16,2.72,2.72,0,0,1-1-.89,9.4,9.4,0,0,1-1.37-2.16,3.08,3.08,0,0,1,0-2.49,1.88,1.88,0,0,1,2.12-1c.34.1.71.32,1,.14s.22-.88.35-1.34c.2-.72,1.23-.85,1.89-.51a15.42,15.42,0,0,1,1.71,1.43,7.62,7.62,0,0,1,1.29.94c.29.33.51.79.94.87s.9-.42.92-.91a2.71,2.71,0,0,0-.49-1.37c-1.11-2-2.07-4.22-1.58-6.43a9.88,9.88,0,0,1,.61-1.73,7.9,7.9,0,0,1,2.49-3.61,9.77,9.77,0,0,0,1.36-.91,2.58,2.58,0,0,0,.58-1.66,6,6,0,0,0,3,0,2,2,0,0,0,1.1-.62,1.5,1.5,0,0,0,.28-.83,2.25,2.25,0,0,0-1.65-2.26c-.52-.13-1.18-.11-1.48-.56a.94.94,0,0,1,0-1,1.91,1.91,0,0,1,.83-.68,3.36,3.36,0,0,1,2.25-.26,2.58,2.58,0,0,1,1.73,1.42c.3.67.31,1.53.88,2a1.49,1.49,0,0,0,1.43.17,3.45,3.45,0,0,0,1.22-.85,2.09,2.09,0,0,0,.78-1.57,1.58,1.58,0,0,0-.75-1.1,7,7,0,0,0-1.23-.6,9,9,0,0,1-3.18-2.36c-.56-.65-1-1.37-1.6-2a5.46,5.46,0,0,0-2.66-1.64,3.72,3.72,0,0,0-3,.52,1.73,1.73,0,0,1-.57.33c-.53.13-1-.37-1.4-.71-1-.78-3.16-1.12-3.66,0-.29.66.13,1.4.28,2.11a3.71,3.71,0,0,1-1.22,3.29,1.45,1.45,0,0,0-.33.41c-.21.54.43,1,.7,1.51a1.25,1.25,0,0,1-1.87,1.58c-.86-.66-.62-2.14-1.43-2.85-.56-.48-1.39-.43-2-.77a2.94,2.94,0,0,1-1.26-2.5,5,5,0,0,1,.61-2.93,3.08,3.08,0,0,1,2.48-1.54c.51,0,1,.13,1.54.1a1.19,1.19,0,0,0,1.18-.82,1.44,1.44,0,0,0-.05-.65,4,4,0,0,1,0-2,1.5,1.5,0,0,1,1.53-1.08,1.42,1.42,0,0,1,1.08,1.24,2.94,2.94,0,0,1-.38,1.7,1.59,1.59,0,0,0-.2.55.92.92,0,0,0,.46.79,2.43,2.43,0,0,0,.91.29,4.68,4.68,0,0,0,3.59-.47,1.33,1.33,0,0,0,.48-.59,3.24,3.24,0,0,0,.07-1c.05-.92.76-1.68,1-2.56a2.83,2.83,0,0,0-2.66-3.65c-1.22,0-2.35.75-3.57.67a1.46,1.46,0,0,1-.9-.33,3.33,3.33,0,0,1-.59-1c-.18-.33-.52-.66-.89-.59s-.56.43-.71.76a5.37,5.37,0,0,0-.48,1.32c-.16.9.15,1.84,0,2.74-.09.41-.41.87-.82.77a.74.74,0,0,1-.41-.31,1.78,1.78,0,0,1-.36-1.2c0-.66.41-1.41,0-1.92a1.06,1.06,0,0,0-1.53.1,3.42,3.42,0,0,0-.73,1.66,1.37,1.37,0,0,0-.75-.65.68.68,0,0,1-.31-.14.78.78,0,0,1-.13-.46,1.36,1.36,0,0,0-1.18-1.08,2.4,2.4,0,0,0-2.47,2.93c.26.68,1,1.24.84,1.95a1.15,1.15,0,0,0-1.56,1,3.05,3.05,0,0,1-2.51-1.4,5,5,0,0,0-2.27-1.91c-.65-.18-1.37,0-2-.19a59.8,59.8,0,0,0-4.36,8c-.11.68-.21,1.36-.31,2A24.38,24.38,0,0,0,269.83,198.84Z" style="fill:#407BFF"></path><path d="M314.05,172.84a1.83,1.83,0,0,1-.65-1.44,12.67,12.67,0,0,1,.16-1.63,6.54,6.54,0,0,0-.75-3.78,3,3,0,0,0-1.1-1.23,3.74,3.74,0,0,0-1.82-.32c-3.15,0-6.32.56-9.43.06a18.24,18.24,0,0,0-2.74-.38c-2.08,0-4.88,1.3-5.5,3.48a1.85,1.85,0,0,0,.81,2.2c1.44.92,2.17-.16,3.35-.8s2.65-.05,3.91-.46a2.84,2.84,0,0,1,.84-.23c.72,0,1.15.88,1.05,1.6a9.1,9.1,0,0,1-.81,2,1.78,1.78,0,0,0,.23,2c.13.12.3.22.35.38.1.34-.33.55-.64.72a1.88,1.88,0,0,0-.82,2.32c.31.72,1,1.17,1.39,1.87a20.53,20.53,0,0,0,.67,2,3.51,3.51,0,0,0,2.73,1.19,2.67,2.67,0,0,0,1.15,1.87,2,2,0,0,0,2.26-.46,4.21,4.21,0,0,0,1-2.2,10.25,10.25,0,0,1,.43-1.82,5.09,5.09,0,0,1,3-2.49,6.74,6.74,0,0,0,2.45-1.27,1.71,1.71,0,0,0,.12-2.45C315.24,173.18,314.54,173.2,314.05,172.84Z" style="fill:#407BFF"></path><path d="M370.77,201.09a2.34,2.34,0,0,0-.42-.62c-.37-.44-.89-.92-1.44-.75s-.71,1.12-.75,1.82a5.05,5.05,0,0,1-.91,2.57l-1.47-.25c-.72-1.33-.2-3,.32-4.42l2.19-5.92a7.33,7.33,0,0,0,.5-1.89,6.84,6.84,0,0,0-.45-2.52,31.92,31.92,0,0,0,1.47-7.78,7.5,7.5,0,0,0-.11-2,9,9,0,0,0-.93-2.22l-1.21-2.26a2.23,2.23,0,0,0-.58-.8,2.73,2.73,0,0,0-.71-.34,6.91,6.91,0,0,1-2.9-2.16c-1.48-1.87-2.37-4.12-4.31-5.51a17.93,17.93,0,0,0-5.14-2.26,5.44,5.44,0,0,0-2.31-.39,6.68,6.68,0,0,0-2.05.76,12.4,12.4,0,0,1-5,1.1,1.14,1.14,0,0,0-.91.28.81.81,0,0,0,.26,1.07c.32.25.73.37,1.07.61-.32.76-1.84.51-2.17,1.26-.1.22-.08.5-.25.68a.59.59,0,0,1-.41.14c-.74,0-1.26-.72-1.58-1.39a3.24,3.24,0,0,0-1.28-1.75,1.43,1.43,0,0,0-1.36.1c-.18.12-.33.28-.51.39a2.17,2.17,0,0,1-.84.21A19.54,19.54,0,0,1,334,167a.43.43,0,0,0-.23,0,.41.41,0,0,0-.12.2,15,15,0,0,0-.6,2.64,3.62,3.62,0,0,1-.68,2.05,1.09,1.09,0,0,0-.23.29.69.69,0,0,0,0,.32,1.73,1.73,0,0,0,1,1.28c.89.38,1.95,0,2.88.25.39.12.8.37,1.18.21a.87.87,0,0,0,.43-.92,5.74,5.74,0,0,0-.34-1,3.82,3.82,0,0,1,.38-2.84,1.8,1.8,0,0,0,.83,1.26c.52.21,1.14-.09,1.64.14s.69,1.14,1.15,1.66a2.66,2.66,0,0,1,.39.43,1,1,0,0,1-.08,1,3.37,3.37,0,0,1-.73.73c-.41.35-.81.71-1.18,1.09a3.53,3.53,0,0,1-.71.63,1,1,0,0,1-.9.15,6.24,6.24,0,0,1-.66-.38,1,1,0,0,0-1.22.35,2.55,2.55,0,0,0-3.5,1c-.36.75-.36,1.74-1,2.22-.84.6-2.1,0-3,.47a1.34,1.34,0,0,0,.67,2.51c.65,0,1.23-.49,1.89-.49a1.67,1.67,0,0,1,.06.83.42.42,0,0,1-.08.21.52.52,0,0,1-.29.16c-1.52.47-3.19.51-4.58,1.29a9.68,9.68,0,0,0-1.71,1.35,1.23,1.23,0,0,0-.53.84,1.17,1.17,0,0,0,.31.72l1.86,2.63a2.67,2.67,0,0,0,.58.67c.76.55,1.81.21,2.67-.15a.91.91,0,0,0,.37-.24,1.1,1.1,0,0,0,.09-.7c-.1-1.42.92-2.63,1.88-3.67a20.56,20.56,0,0,1,2.51-2.43,1.75,1.75,0,0,1,.75-.39,1.88,1.88,0,0,1,.81.12,22.71,22.71,0,0,1,2.73,1.07,3.06,3.06,0,0,1,.88.58,1,1,0,0,1,.29,1c-.09.35-.41.72-.2,1a.7.7,0,0,0,.49.2,2.24,2.24,0,0,0,.93,0,1.15,1.15,0,0,0,.68-1.48c-.44-1-2.08-.92-2.71-1.84-.19-.28-.22-.74.07-.9a.64.64,0,0,1,.33-.07,3.72,3.72,0,0,1,1.78.58,1.84,1.84,0,0,1,.39.28,2,2,0,0,1,.31.5,11.35,11.35,0,0,0,2.58,3.45,3.34,3.34,0,0,0,1.79,1c.41,0,.66-.63.52-1-.08-.23-.25-.55,0-.67a.28.28,0,0,1,.2,0c.52.07.79.65,1.26.9s1.25,0,1.89.08a.41.41,0,0,1,.22.07.42.42,0,0,1,.1.17l.57,1.32a1,1,0,0,0,.21.38,1.09,1.09,0,0,0,.48.24c.62.17,1.28.16,1.87.38a4.18,4.18,0,0,1,2.14,2.57,2.54,2.54,0,0,0-1.19,2.17,3.34,3.34,0,0,0,.91,2.18,1,1,0,0,0,.39.3,1.12,1.12,0,0,0,.6,0l1.43-.32a.61.61,0,0,1,.4,0,.59.59,0,0,1,.25.37,4.75,4.75,0,0,1,.2,1.72,1.21,1.21,0,0,1-.19.65,1.46,1.46,0,0,1-1,.43q-5.49.65-11,1.06c-1-.62-1.81-1.3-2.85-1.93a2.42,2.42,0,0,0-.77-.34,2.68,2.68,0,0,0-1.11.16c-2.28.6-4.71.19-7,.59a2.08,2.08,0,0,0-1,.36c-.78.65-.4,1.94-.83,2.86-.71,1.52-3.2,1.34-4,2.79a3.63,3.63,0,0,0,0,2.71c.18.64.35,1.29.52,1.93-.46,1.28-1.11,2.75-1.48,4.06a1.22,1.22,0,0,0-.06.65,1.1,1.1,0,0,0,.43.55,5,5,0,0,0,1.92.9,3.81,3.81,0,0,1,1.06.31c.73.4.93,1.35,1.44,2a3.34,3.34,0,0,0,2.28,1.15,10,10,0,0,0,2.61-.16l4.34-.65a2.56,2.56,0,0,1,1.53.08,1.9,1.9,0,0,1,.79.82c.67,1.23.52,2.72.73,4.11.26,1.78,1.12,3.43,1.41,5.21s-1.48,3.71-2.11,5.38a4.31,4.31,0,0,0-.38,1.49,4.63,4.63,0,0,0,.43,1.66c.59,1.46,1.18,2.93,1.76,4.39a1.47,1.47,0,0,0,.33.57,1.44,1.44,0,0,0,.64.29,12.48,12.48,0,0,0,2.12.33,1,1,0,0,0,.55-.08,1.1,1.1,0,0,0,.38-.47,34.47,34.47,0,0,1,5.81-7.87,6.31,6.31,0,0,0,1.55-2,6.18,6.18,0,0,0,.3-1.54c.18-1.8.36-3.59.55-5.39s2.31-3.39,3.5-4.89c.94-1.18,2-2.4,2.12-3.9s-1-3.16-.84-4.79l-2.41-2c-1-.87-2.13-1.86-2.31-3.2a5.52,5.52,0,0,1,.17-1.76l.66-3.3a2.15,2.15,0,0,1,1.13.66l2.51,2.28a1,1,0,0,1,.3.38.87.87,0,0,1,0,.53c-.32,1.14-1.17,2.23-.86,3.36a3.62,3.62,0,0,0,1.7,1.82,1.88,1.88,0,0,0,.94.38,1.76,1.76,0,0,0,.89-.35,12.5,12.5,0,0,0,3.4-3.36,3.68,3.68,0,0,0,.57-1.07c.36-1.21-.26-2.57.15-3.76C370.25,202.76,371.08,202,370.77,201.09Z" style="fill:#407BFF"></path><path d="M365.19,227.94a1.58,1.58,0,0,0-1,.72,2,2,0,0,1-1.55.92l-1.53.23a1.37,1.37,0,0,0-.45.13,1,1,0,0,0-.47.8c0,.32,0,.64,0,1-.1,1.64-1.69,2.78-2.21,4.33a.7.7,0,0,0-.05.35.77.77,0,0,0,.24.39,1,1,0,0,0,.61.4,1,1,0,0,0,.41-.08l1.24-.43a6.16,6.16,0,0,0,1.6-.75,3,3,0,0,0,1.18-2,9.82,9.82,0,0,1,.18-2.25,4.42,4.42,0,0,1,1.11-1.41C364.75,230,366.6,227.79,365.19,227.94Z" style="fill:#407BFF"></path><path d="M310.74,190.27a1.56,1.56,0,0,0-.4-.22,4.39,4.39,0,0,0-.61-.21,1.23,1.23,0,0,1-.67-.49,1.24,1.24,0,0,0-.41-.38,1.05,1.05,0,0,0-1.29.3,1.08,1.08,0,0,0-.11.3,3.42,3.42,0,0,0-.09.63.53.53,0,0,0,0,.25.51.51,0,0,0,.17.22,1.55,1.55,0,0,0,1,.28,8.15,8.15,0,0,1,1.1,0,.55.55,0,0,1,.22.06,1.22,1.22,0,0,1,.17.15.61.61,0,0,0,.54.08,1.93,1.93,0,0,0,.49-.26.32.32,0,0,0,.12-.14.2.2,0,0,0,0-.11A.9.9,0,0,0,310.74,190.27Z" style="fill:#407BFF"></path><g style="opacity:0.2"><path d="M269.83,198.84a36.15,36.15,0,0,0,1.57,5.74c.57,1.91,1.38,4.44.49,6.22A8.52,8.52,0,0,0,271,213a2.86,2.86,0,0,0,.39,2.23c.51.69,1.39,1,2,1.66,1.11,1.21.87,3.1,1.32,4.68A5.28,5.28,0,0,0,278,225c.67.24,1.65.18,1.8-.52s-.44-1-.92-1.39a11.64,11.64,0,0,1-2.93-3.13,1.67,1.67,0,0,1-.32-.81.61.61,0,0,1,.48-.64c.79.25,1,1.25,1.45,1.92a2.36,2.36,0,0,0,2.77.82,2.38,2.38,0,0,1,.56-.21,1.85,1.85,0,0,1,.7.06,10,10,0,0,1,4.36,1.74,14.83,14.83,0,0,1,2.37,3.05,5,5,0,0,0,3,2.28,11.31,11.31,0,0,0,3.21-.33,6.71,6.71,0,0,1,3.83.74,5.86,5.86,0,0,0-1.5,5.38c.14.6.39,1.17.48,1.78a15.44,15.44,0,0,1-.13,2.88,3,3,0,0,0,1,2.6c.87.63,2.3.54,2.77,1.51.17.34.16.74.3,1.09a2.48,2.48,0,0,0,2.35,1.24,6.41,6.41,0,0,1,2.77.36c1.29.69,1.6,2.35,2.23,3.67a6.44,6.44,0,0,0,1.51,2c.76.68,1.72,1.25,2.05,2.21a6.39,6.39,0,0,0,.46,1.65c.43.67,1.41.87,1.75,1.59a5.27,5.27,0,0,1,.2,1.05,2.92,2.92,0,0,0,1.93,2,8.62,8.62,0,0,0,2.86.36l3,0c.57,0,1.26-.06,1.51-.58a1.11,1.11,0,0,0-.65-1.35,7.87,7.87,0,0,0-1.6-.43,3.56,3.56,0,0,1-2.46-2.6,11.68,11.68,0,0,0-.22-1.18,7.67,7.67,0,0,0-.76-1.48,6.83,6.83,0,0,1-.73-4.5c.14-.8.44-1.58.51-2.4a8.77,8.77,0,0,0-.61-3.45,1.56,1.56,0,0,1-.1-.82,1.84,1.84,0,0,1,.65-.79c1.56-1.39.81-3.75.08-5.71-.28-.76.22-1.57.64-2.27s.77-1.65.24-2.27a1.9,1.9,0,0,0-1.55-.48,8.17,8.17,0,0,0-2.35.41c-1,.32-2,.82-2.94.48a5,5,0,0,1-1.82-1.68A2.1,2.1,0,0,0,308,228c-.33.13-.61.41-1,.44a1.27,1.27,0,0,1-1-.62,2.56,2.56,0,0,0-.88-.88c-.84-.38-1.87.45-2.71.07a4,4,0,0,1-.94-.86,5,5,0,0,0-3.07-.9,3.64,3.64,0,0,1-2.86-1.67,8.19,8.19,0,0,0,.23-1.54,1.55,1.55,0,0,0-2-1.28.77.77,0,0,0-.38.25c-.37.47.17,1.14.08,1.73s-1,.93-1.69,1a2.61,2.61,0,0,1-1.18-.16,2.72,2.72,0,0,1-1-.89,9.4,9.4,0,0,1-1.37-2.16,3.08,3.08,0,0,1,0-2.49,1.88,1.88,0,0,1,2.12-1c.34.1.71.32,1,.14s.22-.88.35-1.34c.2-.72,1.23-.85,1.89-.51a15.42,15.42,0,0,1,1.71,1.43,7.62,7.62,0,0,1,1.29.94c.29.33.51.79.94.87s.9-.42.92-.91a2.71,2.71,0,0,0-.49-1.37c-1.11-2-2.07-4.22-1.58-6.43a9.88,9.88,0,0,1,.61-1.73,7.9,7.9,0,0,1,2.49-3.61,9.77,9.77,0,0,0,1.36-.91,2.58,2.58,0,0,0,.58-1.66,6,6,0,0,0,3,0,2,2,0,0,0,1.1-.62,1.5,1.5,0,0,0,.28-.83,2.25,2.25,0,0,0-1.65-2.26c-.52-.13-1.18-.11-1.48-.56a.94.94,0,0,1,0-1,1.91,1.91,0,0,1,.83-.68,3.36,3.36,0,0,1,2.25-.26,2.58,2.58,0,0,1,1.73,1.42c.3.67.31,1.53.88,2a1.49,1.49,0,0,0,1.43.17,3.45,3.45,0,0,0,1.22-.85,2.09,2.09,0,0,0,.78-1.57,1.58,1.58,0,0,0-.75-1.1,7,7,0,0,0-1.23-.6,9,9,0,0,1-3.18-2.36c-.56-.65-1-1.37-1.6-2a5.46,5.46,0,0,0-2.66-1.64,3.72,3.72,0,0,0-3,.52,1.73,1.73,0,0,1-.57.33c-.53.13-1-.37-1.4-.71-1-.78-3.16-1.12-3.66,0-.29.66.13,1.4.28,2.11a3.71,3.71,0,0,1-1.22,3.29,1.45,1.45,0,0,0-.33.41c-.21.54.43,1,.7,1.51a1.25,1.25,0,0,1-1.87,1.58c-.86-.66-.62-2.14-1.43-2.85-.56-.48-1.39-.43-2-.77a2.94,2.94,0,0,1-1.26-2.5,5,5,0,0,1,.61-2.93,3.08,3.08,0,0,1,2.48-1.54c.51,0,1,.13,1.54.1a1.19,1.19,0,0,0,1.18-.82,1.44,1.44,0,0,0-.05-.65,4,4,0,0,1,0-2,1.5,1.5,0,0,1,1.53-1.08,1.42,1.42,0,0,1,1.08,1.24,2.94,2.94,0,0,1-.38,1.7,1.59,1.59,0,0,0-.2.55.92.92,0,0,0,.46.79,2.43,2.43,0,0,0,.91.29,4.68,4.68,0,0,0,3.59-.47,1.33,1.33,0,0,0,.48-.59,3.24,3.24,0,0,0,.07-1c.05-.92.76-1.68,1-2.56a2.83,2.83,0,0,0-2.66-3.65c-1.22,0-2.35.75-3.57.67a1.46,1.46,0,0,1-.9-.33,3.33,3.33,0,0,1-.59-1c-.18-.33-.52-.66-.89-.59s-.56.43-.71.76a5.37,5.37,0,0,0-.48,1.32c-.16.9.15,1.84,0,2.74-.09.41-.41.87-.82.77a.74.74,0,0,1-.41-.31,1.78,1.78,0,0,1-.36-1.2c0-.66.41-1.41,0-1.92a1.06,1.06,0,0,0-1.53.1,3.42,3.42,0,0,0-.73,1.66,1.37,1.37,0,0,0-.75-.65.68.68,0,0,1-.31-.14.78.78,0,0,1-.13-.46,1.36,1.36,0,0,0-1.18-1.08,2.4,2.4,0,0,0-2.47,2.93c.26.68,1,1.24.84,1.95a1.15,1.15,0,0,0-1.56,1,3.05,3.05,0,0,1-2.51-1.4,5,5,0,0,0-2.27-1.91c-.65-.18-1.37,0-2-.19a59.8,59.8,0,0,0-4.36,8c-.11.68-.21,1.36-.31,2A24.38,24.38,0,0,0,269.83,198.84Z" style="fill:#fff"></path><path d="M314.05,172.84a1.83,1.83,0,0,1-.65-1.44,12.67,12.67,0,0,1,.16-1.63,6.54,6.54,0,0,0-.75-3.78,3,3,0,0,0-1.1-1.23,3.74,3.74,0,0,0-1.82-.32c-3.15,0-6.32.56-9.43.06a18.24,18.24,0,0,0-2.74-.38c-2.08,0-4.88,1.3-5.5,3.48a1.85,1.85,0,0,0,.81,2.2c1.44.92,2.17-.16,3.35-.8s2.65-.05,3.91-.46a2.84,2.84,0,0,1,.84-.23c.72,0,1.15.88,1.05,1.6a9.1,9.1,0,0,1-.81,2,1.78,1.78,0,0,0,.23,2c.13.12.3.22.35.38.1.34-.33.55-.64.72a1.88,1.88,0,0,0-.82,2.32c.31.72,1,1.17,1.39,1.87a20.53,20.53,0,0,0,.67,2,3.51,3.51,0,0,0,2.73,1.19,2.67,2.67,0,0,0,1.15,1.87,2,2,0,0,0,2.26-.46,4.21,4.21,0,0,0,1-2.2,10.25,10.25,0,0,1,.43-1.82,5.09,5.09,0,0,1,3-2.49,6.74,6.74,0,0,0,2.45-1.27,1.71,1.71,0,0,0,.12-2.45C315.24,173.18,314.54,173.2,314.05,172.84Z" style="fill:#fff"></path><path d="M370.77,201.09a2.34,2.34,0,0,0-.42-.62c-.37-.44-.89-.92-1.44-.75s-.71,1.12-.75,1.82a5.05,5.05,0,0,1-.91,2.57l-1.47-.25c-.72-1.33-.2-3,.32-4.42l2.19-5.92a7.33,7.33,0,0,0,.5-1.89,6.84,6.84,0,0,0-.45-2.52,31.92,31.92,0,0,0,1.47-7.78,7.5,7.5,0,0,0-.11-2,9,9,0,0,0-.93-2.22l-1.21-2.26a2.23,2.23,0,0,0-.58-.8,2.73,2.73,0,0,0-.71-.34,6.91,6.91,0,0,1-2.9-2.16c-1.48-1.87-2.37-4.12-4.31-5.51a17.93,17.93,0,0,0-5.14-2.26,5.44,5.44,0,0,0-2.31-.39,6.68,6.68,0,0,0-2.05.76,12.4,12.4,0,0,1-5,1.1,1.14,1.14,0,0,0-.91.28.81.81,0,0,0,.26,1.07c.32.25.73.37,1.07.61-.32.76-1.84.51-2.17,1.26-.1.22-.08.5-.25.68a.59.59,0,0,1-.41.14c-.74,0-1.26-.72-1.58-1.39a3.24,3.24,0,0,0-1.28-1.75,1.43,1.43,0,0,0-1.36.1c-.18.12-.33.28-.51.39a2.17,2.17,0,0,1-.84.21A19.54,19.54,0,0,1,334,167a.43.43,0,0,0-.23,0,.41.41,0,0,0-.12.2,15,15,0,0,0-.6,2.64,3.62,3.62,0,0,1-.68,2.05,1.09,1.09,0,0,0-.23.29.69.69,0,0,0,0,.32,1.73,1.73,0,0,0,1,1.28c.89.38,1.95,0,2.88.25.39.12.8.37,1.18.21a.87.87,0,0,0,.43-.92,5.74,5.74,0,0,0-.34-1,3.82,3.82,0,0,1,.38-2.84,1.8,1.8,0,0,0,.83,1.26c.52.21,1.14-.09,1.64.14s.69,1.14,1.15,1.66a2.66,2.66,0,0,1,.39.43,1,1,0,0,1-.08,1,3.37,3.37,0,0,1-.73.73c-.41.35-.81.71-1.18,1.09a3.53,3.53,0,0,1-.71.63,1,1,0,0,1-.9.15,6.24,6.24,0,0,1-.66-.38,1,1,0,0,0-1.22.35,2.55,2.55,0,0,0-3.5,1c-.36.75-.36,1.74-1,2.22-.84.6-2.1,0-3,.47a1.34,1.34,0,0,0,.67,2.51c.65,0,1.23-.49,1.89-.49a1.67,1.67,0,0,1,.06.83.42.42,0,0,1-.08.21.52.52,0,0,1-.29.16c-1.52.47-3.19.51-4.58,1.29a9.68,9.68,0,0,0-1.71,1.35,1.23,1.23,0,0,0-.53.84,1.17,1.17,0,0,0,.31.72l1.86,2.63a2.67,2.67,0,0,0,.58.67c.76.55,1.81.21,2.67-.15a.91.91,0,0,0,.37-.24,1.1,1.1,0,0,0,.09-.7c-.1-1.42.92-2.63,1.88-3.67a20.56,20.56,0,0,1,2.51-2.43,1.75,1.75,0,0,1,.75-.39,1.88,1.88,0,0,1,.81.12,22.71,22.71,0,0,1,2.73,1.07,3.06,3.06,0,0,1,.88.58,1,1,0,0,1,.29,1c-.09.35-.41.72-.2,1a.7.7,0,0,0,.49.2,2.24,2.24,0,0,0,.93,0,1.15,1.15,0,0,0,.68-1.48c-.44-1-2.08-.92-2.71-1.84-.19-.28-.22-.74.07-.9a.64.64,0,0,1,.33-.07,3.72,3.72,0,0,1,1.78.58,1.84,1.84,0,0,1,.39.28,2,2,0,0,1,.31.5,11.35,11.35,0,0,0,2.58,3.45,3.34,3.34,0,0,0,1.79,1c.41,0,.66-.63.52-1-.08-.23-.25-.55,0-.67a.28.28,0,0,1,.2,0c.52.07.79.65,1.26.9s1.25,0,1.89.08a.41.41,0,0,1,.22.07.42.42,0,0,1,.1.17l.57,1.32a1,1,0,0,0,.21.38,1.09,1.09,0,0,0,.48.24c.62.17,1.28.16,1.87.38a4.18,4.18,0,0,1,2.14,2.57,2.54,2.54,0,0,0-1.19,2.17,3.34,3.34,0,0,0,.91,2.18,1,1,0,0,0,.39.3,1.12,1.12,0,0,0,.6,0l1.43-.32a.61.61,0,0,1,.4,0,.59.59,0,0,1,.25.37,4.75,4.75,0,0,1,.2,1.72,1.21,1.21,0,0,1-.19.65,1.46,1.46,0,0,1-1,.43q-5.49.65-11,1.06c-1-.62-1.81-1.3-2.85-1.93a2.42,2.42,0,0,0-.77-.34,2.68,2.68,0,0,0-1.11.16c-2.28.6-4.71.19-7,.59a2.08,2.08,0,0,0-1,.36c-.78.65-.4,1.94-.83,2.86-.71,1.52-3.2,1.34-4,2.79a3.63,3.63,0,0,0,0,2.71c.18.64.35,1.29.52,1.93-.46,1.28-1.11,2.75-1.48,4.06a1.22,1.22,0,0,0-.06.65,1.1,1.1,0,0,0,.43.55,5,5,0,0,0,1.92.9,3.81,3.81,0,0,1,1.06.31c.73.4.93,1.35,1.44,2a3.34,3.34,0,0,0,2.28,1.15,10,10,0,0,0,2.61-.16l4.34-.65a2.56,2.56,0,0,1,1.53.08,1.9,1.9,0,0,1,.79.82c.67,1.23.52,2.72.73,4.11.26,1.78,1.12,3.43,1.41,5.21s-1.48,3.71-2.11,5.38a4.31,4.31,0,0,0-.38,1.49,4.63,4.63,0,0,0,.43,1.66c.59,1.46,1.18,2.93,1.76,4.39a1.47,1.47,0,0,0,.33.57,1.44,1.44,0,0,0,.64.29,12.48,12.48,0,0,0,2.12.33,1,1,0,0,0,.55-.08,1.1,1.1,0,0,0,.38-.47,34.47,34.47,0,0,1,5.81-7.87,6.31,6.31,0,0,0,1.55-2,6.18,6.18,0,0,0,.3-1.54c.18-1.8.36-3.59.55-5.39s2.31-3.39,3.5-4.89c.94-1.18,2-2.4,2.12-3.9s-1-3.16-.84-4.79l-2.41-2c-1-.87-2.13-1.86-2.31-3.2a5.52,5.52,0,0,1,.17-1.76l.66-3.3a2.15,2.15,0,0,1,1.13.66l2.51,2.28a1,1,0,0,1,.3.38.87.87,0,0,1,0,.53c-.32,1.14-1.17,2.23-.86,3.36a3.62,3.62,0,0,0,1.7,1.82,1.88,1.88,0,0,0,.94.38,1.76,1.76,0,0,0,.89-.35,12.5,12.5,0,0,0,3.4-3.36,3.68,3.68,0,0,0,.57-1.07c.36-1.21-.26-2.57.15-3.76C370.25,202.76,371.08,202,370.77,201.09Z" style="fill:#fff"></path><path d="M365.19,227.94a1.58,1.58,0,0,0-1,.72,2,2,0,0,1-1.55.92l-1.53.23a1.37,1.37,0,0,0-.45.13,1,1,0,0,0-.47.8c0,.32,0,.64,0,1-.1,1.64-1.69,2.78-2.21,4.33a.7.7,0,0,0-.05.35.77.77,0,0,0,.24.39,1,1,0,0,0,.61.4,1,1,0,0,0,.41-.08l1.24-.43a6.16,6.16,0,0,0,1.6-.75,3,3,0,0,0,1.18-2,9.82,9.82,0,0,1,.18-2.25,4.42,4.42,0,0,1,1.11-1.41C364.75,230,366.6,227.79,365.19,227.94Z" style="fill:#fff"></path><path d="M310.74,190.27a1.56,1.56,0,0,0-.4-.22,4.39,4.39,0,0,0-.61-.21,1.23,1.23,0,0,1-.67-.49,1.24,1.24,0,0,0-.41-.38,1.05,1.05,0,0,0-1.29.3,1.08,1.08,0,0,0-.11.3,3.42,3.42,0,0,0-.09.63.53.53,0,0,0,0,.25.51.51,0,0,0,.17.22,1.55,1.55,0,0,0,1,.28,8.15,8.15,0,0,1,1.1,0,.55.55,0,0,1,.22.06,1.22,1.22,0,0,1,.17.15.61.61,0,0,0,.54.08,1.93,1.93,0,0,0,.49-.26.32.32,0,0,0,.12-.14.2.2,0,0,0,0-.11A.9.9,0,0,0,310.74,190.27Z" style="fill:#fff"></path></g><path d="M276,195.79a64.87,64.87,0,0,1,2.83-19,59.46,59.46,0,0,0,89.71,78,65.07,65.07,0,0,1-92.54-59Z" style="opacity:0.22"></path></g><g id="freepik--Connection--inject-24"><path d="M248.58,124.91c0-14.93-10.45-33.12-23.45-40.62-6.94-4-13.18-4.15-17.51-1.16h0l-5.12,3.08c4.24-2.24,10-1.81,16.34,1.85,13,7.51,23.5,25.69,23.45,40.62,0,7.39-2.61,12.59-6.8,15.06h0l5.8-3.52a10.28,10.28,0,0,0,1.23-.74l0,0h0C246.29,136.82,248.56,131.82,248.58,124.91Z" style="fill:#e0e0e0"></path><path d="M248.58,124.91c0-14.93-10.45-33.12-23.45-40.62-6.94-4-13.18-4.15-17.51-1.16h0l-5.12,3.08c4.24-2.24,10-1.81,16.34,1.85,13,7.51,23.5,25.69,23.45,40.62,0,7.39-2.61,12.59-6.8,15.06h0l5.8-3.52a10.28,10.28,0,0,0,1.23-.74l0,0h0C246.29,136.82,248.56,131.82,248.58,124.91Z" style="opacity:0.1"></path><path d="M242.29,128.68c.05-14.93-10.45-33.11-23.45-40.62-6.34-3.66-12.1-4.09-16.34-1.85a10.29,10.29,0,0,0-1.15.69h0c-3.78,2.62-6.09,7.64-6.11,14.6,0,14.93,10.46,33.13,23.46,40.63,6.57,3.8,12.51,4.13,16.8,1.6S242.27,136.07,242.29,128.68Z" style="fill:#e0e0e0"></path><path d="M222,138.63c-12.28-7.09-22.24-24.34-22.2-38.45,0-5.37,1.53-9.54,4.27-11.92-.13.06-.26.1-.39.17a8.18,8.18,0,0,0-.86.52l-.13.08c-3.17,2.26-4.92,6.69-4.94,12.49,0,14.11,9.92,31.35,22.21,38.45a19.2,19.2,0,0,0,9.29,2.88,9.72,9.72,0,0,0,5-1.27,9.43,9.43,0,0,0,1.35-1,9.84,9.84,0,0,1-4.28.94A19.12,19.12,0,0,1,222,138.63Z" style="fill:#e0e0e0"></path><path d="M222,138.63c-12.28-7.09-22.24-24.34-22.2-38.45,0-5.37,1.53-9.54,4.27-11.92-.13.06-.26.1-.39.17a8.18,8.18,0,0,0-.86.52l-.13.08c-3.17,2.26-4.92,6.69-4.94,12.49,0,14.11,9.92,31.35,22.21,38.45a19.2,19.2,0,0,0,9.29,2.88,9.72,9.72,0,0,0,5-1.27,9.43,9.43,0,0,0,1.35-1,9.84,9.84,0,0,1-4.28.94A19.12,19.12,0,0,1,222,138.63Z" style="opacity:0.2"></path><path d="M217.59,90.24a19.18,19.18,0,0,0-9.3-2.89,9.93,9.93,0,0,0-4.23.91c-2.74,2.38-4.26,6.55-4.27,11.92,0,14.11,9.92,31.36,22.2,38.45a19.12,19.12,0,0,0,9.29,2.89,9.84,9.84,0,0,0,4.28-.94c2.71-2.38,4.2-6.53,4.22-11.9C239.82,114.57,229.86,97.33,217.59,90.24Z" style="fill:#455a64"></path><path d="M228.53,124.65l-5.32-4.83a4.06,4.06,0,0,1-1.32-2.77v-.82c3.35.49,5.75-1.82,5.77-6.16,0-5.59-3.92-12.41-8.79-15.22s-8.83-.55-8.84,5c0,4.34,2.36,9.41,5.7,12.79v.81c0,.93-.55,1.45-1.33,1.25l-5.33-1.33c-2.65-.65-4.66.71-5.18,3.52l-.06.33c4,8.89,10.65,17,18.16,21.37a19.12,19.12,0,0,0,9.29,2.89,10.11,10.11,0,0,0,3.4-.58l-1-6.81A16.82,16.82,0,0,0,228.53,124.65Z" style="fill:#407BFF"></path><path d="M375.46,361.94C375.5,347,365,328.83,352,321.32c-6.94-4-13.19-4.15-17.51-1.15h0l-5.12,3.08c4.24-2.24,10-1.81,16.34,1.85,13,7.51,23.49,25.69,23.45,40.62,0,7.39-2.62,12.59-6.81,15.06h0l5.8-3.51a13,13,0,0,0,1.23-.75l0,0h0C373.16,373.85,375.44,368.85,375.46,361.94Z" style="fill:#e0e0e0"></path><path d="M375.46,361.94C375.5,347,365,328.83,352,321.32c-6.94-4-13.19-4.15-17.51-1.15h0l-5.12,3.08c4.24-2.24,10-1.81,16.34,1.85,13,7.51,23.49,25.69,23.45,40.62,0,7.39-2.62,12.59-6.81,15.06h0l5.8-3.51a13,13,0,0,0,1.23-.75l0,0h0C373.16,373.85,375.44,368.85,375.46,361.94Z" style="opacity:0.1"></path><path d="M369.17,365.71c0-14.93-10.45-33.11-23.45-40.62-6.34-3.66-12.1-4.09-16.34-1.85a10.42,10.42,0,0,0-1.16.69h0c-3.77,2.62-6.08,7.64-6.1,14.6,0,14.93,10.46,33.13,23.46,40.63,6.57,3.8,12.51,4.13,16.79,1.6S369.15,373.1,369.17,365.71Z" style="fill:#e0e0e0"></path><path d="M348.87,375.66c-12.28-7.09-22.24-24.34-22.2-38.45,0-5.37,1.53-9.54,4.27-11.92l-.39.17a9.52,9.52,0,0,0-.87.52l-.12.08c-3.17,2.26-4.92,6.69-4.94,12.49,0,14.11,9.92,31.36,22.2,38.45a19.27,19.27,0,0,0,9.29,2.88,9.73,9.73,0,0,0,5-1.27,9.24,9.24,0,0,0,1.35-1,9.84,9.84,0,0,1-4.28.94A19.12,19.12,0,0,1,348.87,375.66Z" style="fill:#e0e0e0"></path><path d="M348.87,375.66c-12.28-7.09-22.24-24.34-22.2-38.45,0-5.37,1.53-9.54,4.27-11.92l-.39.17a9.52,9.52,0,0,0-.87.52l-.12.08c-3.17,2.26-4.92,6.69-4.94,12.49,0,14.11,9.92,31.36,22.2,38.45a19.27,19.27,0,0,0,9.29,2.88,9.73,9.73,0,0,0,5-1.27,9.24,9.24,0,0,0,1.35-1,9.84,9.84,0,0,1-4.28.94A19.12,19.12,0,0,1,348.87,375.66Z" style="opacity:0.2"></path><path d="M344.46,327.27a19.12,19.12,0,0,0-9.29-2.89,9.9,9.9,0,0,0-4.23.91c-2.74,2.38-4.26,6.55-4.27,11.92,0,14.11,9.92,31.36,22.2,38.45a19.12,19.12,0,0,0,9.29,2.89,9.84,9.84,0,0,0,4.28-.94c2.71-2.38,4.2-6.53,4.22-11.9C366.7,351.6,356.74,334.36,344.46,327.27Z" style="fill:#455a64"></path><path d="M355.41,361.68l-5.33-4.83a4.09,4.09,0,0,1-1.31-2.77v-.81c3.35.48,5.75-1.83,5.76-6.17,0-5.59-3.92-12.41-8.78-15.22s-8.83-.55-8.84,5c0,4.34,2.36,9.41,5.7,12.79v.81c0,.93-.55,1.45-1.33,1.25l-5.34-1.33c-2.64-.65-4.65.71-5.17,3.53l-.06.32c4,8.89,10.64,17,18.16,21.37a19.12,19.12,0,0,0,9.29,2.89,10.11,10.11,0,0,0,3.4-.58l-1-6.81A16.88,16.88,0,0,0,355.41,361.68Z" style="fill:#407BFF"></path><path d="M445.55,322.1c0-13.14-9.2-29.15-20.64-35.75-6.11-3.53-11.61-3.66-15.41-1h0L405,288c3.73-2,8.8-1.59,14.38,1.63,11.44,6.6,20.68,22.61,20.65,35.75,0,6.5-2.31,11.08-6,13.26h0l5.1-3.09a9.09,9.09,0,0,0,1.08-.65l.05,0h0C443.53,332.58,445.53,328.18,445.55,322.1Z" style="fill:#e0e0e0"></path><path d="M445.55,322.1c0-13.14-9.2-29.15-20.64-35.75-6.11-3.53-11.61-3.66-15.41-1h0L405,288c3.73-2,8.8-1.59,14.38,1.63,11.44,6.6,20.68,22.61,20.65,35.75,0,6.5-2.31,11.08-6,13.26h0l5.1-3.09a9.09,9.09,0,0,0,1.08-.65l.05,0h0C443.53,332.58,445.53,328.18,445.55,322.1Z" style="opacity:0.1"></path><path d="M440,325.42c0-13.14-9.21-29.15-20.65-35.75-5.58-3.22-10.65-3.61-14.38-1.63a10.47,10.47,0,0,0-1,.6h0c-3.32,2.31-5.35,6.73-5.37,12.85,0,13.15,9.21,29.17,20.65,35.77,5.78,3.34,11,3.63,14.78,1.41S440,331.92,440,325.42Z" style="fill:#e0e0e0"></path><path d="M422.14,334.18c-10.81-6.24-19.57-21.42-19.54-33.84,0-4.73,1.35-8.4,3.76-10.5-.11.05-.23.09-.34.15a7.31,7.31,0,0,0-.76.46l-.11.07c-2.79,2-4.33,5.89-4.35,11,0,12.42,8.73,27.6,19.55,33.85a16.82,16.82,0,0,0,8.17,2.54,8.45,8.45,0,0,0,4.38-1.13,7.72,7.72,0,0,0,1.19-.87,8.73,8.73,0,0,1-3.77.82A16.88,16.88,0,0,1,422.14,334.18Z" style="fill:#e0e0e0"></path><path d="M422.14,334.18c-10.81-6.24-19.57-21.42-19.54-33.84,0-4.73,1.35-8.4,3.76-10.5-.11.05-.23.09-.34.15a7.31,7.31,0,0,0-.76.46l-.11.07c-2.79,2-4.33,5.89-4.35,11,0,12.42,8.73,27.6,19.55,33.85a16.82,16.82,0,0,0,8.17,2.54,8.45,8.45,0,0,0,4.38-1.13,7.72,7.72,0,0,0,1.19-.87,8.73,8.73,0,0,1-3.77.82A16.88,16.88,0,0,1,422.14,334.18Z" style="opacity:0.2"></path><path d="M418.27,291.59a16.8,16.8,0,0,0-8.18-2.55,8.75,8.75,0,0,0-3.73.8c-2.41,2.1-3.75,5.77-3.76,10.5,0,12.42,8.73,27.6,19.54,33.84a16.88,16.88,0,0,0,8.18,2.54,8.73,8.73,0,0,0,3.77-.82c2.39-2.1,3.7-5.75,3.71-10.48C437.84,313,429.07,297.83,418.27,291.59Z" style="fill:#455a64"></path><path d="M427.9,321.88l-4.69-4.26a3.53,3.53,0,0,1-1.15-2.44v-.71c2.95.43,5.06-1.61,5.07-5.43,0-4.92-3.45-10.93-7.73-13.4s-7.77-.48-7.79,4.44c0,3.82,2.08,8.28,5,11.25v.72c0,.82-.48,1.27-1.17,1.1L410.77,312c-2.33-.57-4.1.62-4.56,3.1l0,.28c3.53,7.83,9.37,15,16,18.82a16.88,16.88,0,0,0,8.18,2.54,8.83,8.83,0,0,0,3-.51l-.89-6A14.85,14.85,0,0,0,427.9,321.88Z" style="fill:#407BFF"></path><path d="M340,136.69c0-11.57-8.1-25.65-18.16-31.46-5.38-3.1-10.21-3.22-13.56-.9h0l-4,2.38c3.29-1.73,7.75-1.39,12.66,1.44,10.06,5.81,18.19,19.89,18.16,31.46,0,5.72-2,9.75-5.27,11.66h0l4.49-2.72c.33-.18.65-.37,1-.58l0,0h0C338.24,145.91,340,142,340,136.69Z" style="fill:#e0e0e0"></path><path d="M340,136.69c0-11.57-8.1-25.65-18.16-31.46-5.38-3.1-10.21-3.22-13.56-.9h0l-4,2.38c3.29-1.73,7.75-1.39,12.66,1.44,10.06,5.81,18.19,19.89,18.16,31.46,0,5.72-2,9.75-5.27,11.66h0l4.49-2.72c.33-.18.65-.37,1-.58l0,0h0C338.24,145.91,340,142,340,136.69Z" style="opacity:0.1"></path><path d="M335.15,139.61c0-11.57-8.1-25.65-18.16-31.46-4.91-2.83-9.37-3.17-12.66-1.44a8.77,8.77,0,0,0-.89.54h0c-2.93,2-4.72,5.91-4.73,11.3,0,11.57,8.1,25.66,18.17,31.48,5.09,2.93,9.69,3.19,13,1.23S335.13,145.33,335.15,139.61Z" style="fill:#e0e0e0"></path><path d="M319.43,147.31c-9.52-5.49-17.23-18.85-17.2-29.77,0-4.16,1.19-7.4,3.31-9.24-.1,0-.2.08-.3.14a7.33,7.33,0,0,0-.67.39l-.1.07c-2.45,1.75-3.81,5.18-3.82,9.67,0,10.93,7.68,24.29,17.19,29.78a14.86,14.86,0,0,0,7.2,2.23,7.52,7.52,0,0,0,3.85-1,6.51,6.51,0,0,0,1-.77,7.58,7.58,0,0,1-3.31.72A14.74,14.74,0,0,1,319.43,147.31Z" style="fill:#e0e0e0"></path><path d="M319.43,147.31c-9.52-5.49-17.23-18.85-17.2-29.77,0-4.16,1.19-7.4,3.31-9.24-.1,0-.2.08-.3.14a7.33,7.33,0,0,0-.67.39l-.1.07c-2.45,1.75-3.81,5.18-3.82,9.67,0,10.93,7.68,24.29,17.19,29.78a14.86,14.86,0,0,0,7.2,2.23,7.52,7.52,0,0,0,3.85-1,6.51,6.51,0,0,0,1-.77,7.58,7.58,0,0,1-3.31.72A14.74,14.74,0,0,1,319.43,147.31Z" style="opacity:0.2"></path><path d="M316,109.84a14.74,14.74,0,0,0-7.19-2.24,7.65,7.65,0,0,0-3.28.7c-2.12,1.84-3.3,5.08-3.31,9.24,0,10.92,7.68,24.28,17.2,29.77a14.74,14.74,0,0,0,7.19,2.24,7.58,7.58,0,0,0,3.31-.72c2.11-1.85,3.26-5.06,3.27-9.23C333.23,128.68,325.52,115.33,316,109.84Z" style="fill:#455a64"></path><path d="M324.49,136.49l-4.12-3.74a3.18,3.18,0,0,1-1-2.15V130c2.59.38,4.45-1.42,4.46-4.78a15,15,0,0,0-6.8-11.78c-3.77-2.18-6.84-.43-6.85,3.9a15.11,15.11,0,0,0,4.42,9.9v.64c0,.71-.43,1.11-1,1l-4.14-1c-2.05-.5-3.6.55-4,2.73l-.05.25c3.11,6.89,8.25,13.19,14.07,16.55a14.74,14.74,0,0,0,7.19,2.24,7.78,7.78,0,0,0,2.64-.45l-.79-5.27A13,13,0,0,0,324.49,136.49Z" style="fill:#407BFF"></path><path d="M435.34,239.6c0-11.57-8.1-25.65-18.17-31.46-5.37-3.11-10.21-3.22-13.56-.9h0l-4,2.38c3.28-1.73,7.74-1.4,12.65,1.44,10.07,5.81,18.2,19.89,18.17,31.46,0,5.72-2,9.75-5.28,11.66h0l4.49-2.72a8.24,8.24,0,0,0,.95-.57l0,0h0C433.56,248.82,435.32,245,435.34,239.6Z" style="fill:#e0e0e0"></path><path d="M435.34,239.6c0-11.57-8.1-25.65-18.17-31.46-5.37-3.11-10.21-3.22-13.56-.9h0l-4,2.38c3.28-1.73,7.74-1.4,12.65,1.44,10.07,5.81,18.2,19.89,18.17,31.46,0,5.72-2,9.75-5.28,11.66h0l4.49-2.72a8.24,8.24,0,0,0,.95-.57l0,0h0C433.56,248.82,435.32,245,435.34,239.6Z" style="opacity:0.1"></path><path d="M430.47,242.52c0-11.57-8.1-25.65-18.17-31.46-4.91-2.84-9.37-3.17-12.65-1.44a8.24,8.24,0,0,0-.9.54h0c-2.92,2-4.71,5.92-4.72,11.31,0,11.57,8.1,25.66,18.17,31.47,5.08,2.94,9.69,3.2,13,1.24S430.45,248.24,430.47,242.52Z" style="fill:#e0e0e0"></path><path d="M414.74,250.22c-9.51-5.49-17.22-18.85-17.19-29.78,0-4.16,1.19-7.39,3.31-9.23l-.31.13a6.58,6.58,0,0,0-.67.4l-.09.07c-2.46,1.75-3.81,5.18-3.83,9.67,0,10.93,7.69,24.28,17.2,29.78a14.82,14.82,0,0,0,7.19,2.23,7.47,7.47,0,0,0,3.86-1,7,7,0,0,0,1-.77,7.62,7.62,0,0,1-3.31.73A14.88,14.88,0,0,1,414.74,250.22Z" style="fill:#e0e0e0"></path><path d="M414.74,250.22c-9.51-5.49-17.22-18.85-17.19-29.78,0-4.16,1.19-7.39,3.31-9.23l-.31.13a6.58,6.58,0,0,0-.67.4l-.09.07c-2.46,1.75-3.81,5.18-3.83,9.67,0,10.93,7.69,24.28,17.2,29.78a14.82,14.82,0,0,0,7.19,2.23,7.47,7.47,0,0,0,3.86-1,7,7,0,0,0,1-.77,7.62,7.62,0,0,1-3.31.73A14.88,14.88,0,0,1,414.74,250.22Z" style="opacity:0.2"></path><path d="M411.33,212.74a14.83,14.83,0,0,0-7.2-2.23,7.61,7.61,0,0,0-3.27.7c-2.12,1.84-3.3,5.07-3.31,9.23,0,10.93,7.68,24.29,17.19,29.78a14.88,14.88,0,0,0,7.2,2.24,7.62,7.62,0,0,0,3.31-.73c2.1-1.84,3.26-5.06,3.27-9.22C428.55,231.59,420.84,218.23,411.33,212.74Z" style="fill:#455a64"></path><path d="M419.81,239.4l-4.13-3.75a3.14,3.14,0,0,1-1-2.14v-.63c2.59.37,4.45-1.42,4.46-4.78a15,15,0,0,0-6.8-11.79c-3.78-2.18-6.84-.42-6.85,3.91a15.1,15.1,0,0,0,4.41,9.9v.63c0,.72-.42,1.12-1,1l-4.13-1c-2.05-.51-3.6.55-4,2.73l0,.25c3.11,6.89,8.24,13.19,14.06,16.55a14.88,14.88,0,0,0,7.2,2.24,7.72,7.72,0,0,0,2.63-.45l-.78-5.27A13,13,0,0,0,419.81,239.4Z" style="fill:#407BFF"></path><path d="M284.33,315.5c0-11.56-8.1-25.65-18.16-31.46-5.37-3.1-10.21-3.22-13.56-.89h0l-4,2.38c3.29-1.74,7.75-1.4,12.66,1.43,10.07,5.82,18.2,19.9,18.16,31.46,0,5.72-2,9.75-5.27,11.67h0l4.49-2.72a7.9,7.9,0,0,0,1-.58l0,0h0C282.55,324.72,284.32,320.85,284.33,315.5Z" style="fill:#e0e0e0"></path><path d="M284.33,315.5c0-11.56-8.1-25.65-18.16-31.46-5.37-3.1-10.21-3.22-13.56-.89h0l-4,2.38c3.29-1.74,7.75-1.4,12.66,1.43,10.07,5.82,18.2,19.9,18.16,31.46,0,5.72-2,9.75-5.27,11.67h0l4.49-2.72a7.9,7.9,0,0,0,1-.58l0,0h0C282.55,324.72,284.32,320.85,284.33,315.5Z" style="opacity:0.1"></path><path d="M279.46,318.42c0-11.56-8.09-25.64-18.16-31.46-4.91-2.83-9.37-3.17-12.66-1.43a7.2,7.2,0,0,0-.89.53h0c-2.92,2-4.71,5.92-4.73,11.31,0,11.56,8.11,25.66,18.17,31.47,5.09,2.94,9.69,3.19,13,1.24S279.45,324.14,279.46,318.42Z" style="fill:#e0e0e0"></path><path d="M263.74,326.13c-9.52-5.49-17.23-18.85-17.2-29.78,0-4.16,1.19-7.39,3.31-9.24l-.3.14a5.64,5.64,0,0,0-.67.4l-.1.07c-2.45,1.74-3.81,5.17-3.82,9.66,0,10.93,7.68,24.29,17.19,29.78a14.8,14.8,0,0,0,7.2,2.24,7.43,7.43,0,0,0,3.85-1,7.07,7.07,0,0,0,1.05-.77,7.66,7.66,0,0,1-3.32.72A14.82,14.82,0,0,1,263.74,326.13Z" style="fill:#e0e0e0"></path><path d="M263.74,326.13c-9.52-5.49-17.23-18.85-17.2-29.78,0-4.16,1.19-7.39,3.31-9.24l-.3.14a5.64,5.64,0,0,0-.67.4l-.1.07c-2.45,1.74-3.81,5.17-3.82,9.66,0,10.93,7.68,24.29,17.19,29.78a14.8,14.8,0,0,0,7.2,2.24,7.43,7.43,0,0,0,3.85-1,7.07,7.07,0,0,0,1.05-.77,7.66,7.66,0,0,1-3.32.72A14.82,14.82,0,0,1,263.74,326.13Z" style="opacity:0.2"></path><path d="M260.33,288.65a14.91,14.91,0,0,0-7.2-2.24,7.8,7.8,0,0,0-3.28.7c-2.12,1.85-3.3,5.08-3.31,9.24,0,10.93,7.68,24.29,17.2,29.78a14.82,14.82,0,0,0,7.19,2.23,7.66,7.66,0,0,0,3.32-.72c2.1-1.85,3.25-5.06,3.27-9.22C277.55,307.49,269.84,294.14,260.33,288.65Z" style="fill:#455a64"></path><path d="M268.8,315.3l-4.12-3.74a3.16,3.16,0,0,1-1-2.15v-.63c2.6.38,4.46-1.41,4.47-4.78a15,15,0,0,0-6.81-11.78c-3.77-2.18-6.84-.43-6.85,3.9a15.16,15.16,0,0,0,4.42,9.91v.63c0,.72-.42,1.12-1,1l-4.13-1c-2-.51-3.61.54-4,2.72l-.05.25c3.11,6.89,8.25,13.2,14.07,16.56a14.82,14.82,0,0,0,7.19,2.23,7.78,7.78,0,0,0,2.64-.44l-.79-5.28A13,13,0,0,0,268.8,315.3Z" style="fill:#407BFF"></path><path d="M235.6,229.76c0-11.56-8.09-25.64-18.16-31.46-5.37-3.1-10.21-3.21-13.56-.89h0l-4,2.38c3.29-1.74,7.75-1.4,12.66,1.44,10.07,5.81,18.2,19.89,18.17,31.46,0,5.72-2,9.75-5.28,11.66h0l4.5-2.72a9.18,9.18,0,0,0,.95-.57l0,0h0C233.83,239,235.59,235.12,235.6,229.76Z" style="fill:#e0e0e0"></path><path d="M235.6,229.76c0-11.56-8.09-25.64-18.16-31.46-5.37-3.1-10.21-3.21-13.56-.89h0l-4,2.38c3.29-1.74,7.75-1.4,12.66,1.44,10.07,5.81,18.2,19.89,18.17,31.46,0,5.72-2,9.75-5.28,11.66h0l4.5-2.72a9.18,9.18,0,0,0,.95-.57l0,0h0C233.83,239,235.59,235.12,235.6,229.76Z" style="opacity:0.1"></path><path d="M230.74,232.69c0-11.57-8.1-25.65-18.17-31.46-4.91-2.84-9.37-3.18-12.66-1.44-.3.16-.6.34-.89.53h0c-2.92,2-4.71,5.92-4.73,11.31,0,11.57,8.11,25.66,18.17,31.47,5.09,2.94,9.7,3.19,13,1.24S230.72,238.41,230.74,232.69Z" style="fill:#e0e0e0"></path><path d="M215,240.39c-9.51-5.49-17.23-18.85-17.2-29.78,0-4.16,1.19-7.39,3.32-9.23l-.31.13a6.58,6.58,0,0,0-.67.4l-.09.07c-2.46,1.75-3.82,5.17-3.83,9.67,0,10.92,7.68,24.28,17.2,29.78a14.82,14.82,0,0,0,7.19,2.23,7.43,7.43,0,0,0,3.85-1,6.59,6.59,0,0,0,1.05-.77,7.67,7.67,0,0,1-3.32.73A14.85,14.85,0,0,1,215,240.39Z" style="fill:#e0e0e0"></path><path d="M215,240.39c-9.51-5.49-17.23-18.85-17.2-29.78,0-4.16,1.19-7.39,3.32-9.23l-.31.13a6.58,6.58,0,0,0-.67.4l-.09.07c-2.46,1.75-3.82,5.17-3.83,9.67,0,10.92,7.68,24.28,17.2,29.78a14.82,14.82,0,0,0,7.19,2.23,7.43,7.43,0,0,0,3.85-1,6.59,6.59,0,0,0,1.05-.77,7.67,7.67,0,0,1-3.32.73A14.85,14.85,0,0,1,215,240.39Z" style="opacity:0.2"></path><path d="M211.6,202.91a14.86,14.86,0,0,0-7.2-2.23,7.57,7.57,0,0,0-3.27.7c-2.13,1.84-3.3,5.07-3.32,9.23,0,10.93,7.69,24.29,17.2,29.78a14.85,14.85,0,0,0,7.19,2.24,7.67,7.67,0,0,0,3.32-.73c2.1-1.85,3.26-5.06,3.27-9.22C228.82,221.76,221.11,208.4,211.6,202.91Z" style="fill:#455a64"></path><path d="M220.08,229.56,216,225.82a3.14,3.14,0,0,1-1-2.14v-.63c2.6.37,4.46-1.42,4.47-4.78a15,15,0,0,0-6.81-11.79c-3.77-2.18-6.83-.42-6.85,3.9a15.19,15.19,0,0,0,4.42,9.91v.63c0,.72-.42,1.12-1,1l-4.13-1c-2.05-.51-3.6.55-4,2.73l-.05.25c3.12,6.89,8.25,13.19,14.07,16.55a14.85,14.85,0,0,0,7.19,2.24,7.78,7.78,0,0,0,2.64-.45l-.78-5.28A13.07,13.07,0,0,0,220.08,229.56Z" style="fill:#407BFF"></path><path d="M444.53,154.8c0-14.12-9.89-31.31-22.18-38.4-6.56-3.79-12.46-3.93-16.55-1.1h0L401,118.21c4-2.12,9.46-1.71,15.46,1.75,12.29,7.1,22.21,24.29,22.17,38.41,0,7-2.47,11.9-6.44,14.24h0l5.48-3.32a10.5,10.5,0,0,0,1.16-.7l0,0h0C442.36,166.06,444.51,161.34,444.53,154.8Z" style="fill:#e0e0e0"></path><path d="M444.53,154.8c0-14.12-9.89-31.31-22.18-38.4-6.56-3.79-12.46-3.93-16.55-1.1h0L401,118.21c4-2.12,9.46-1.71,15.46,1.75,12.29,7.1,22.21,24.29,22.17,38.41,0,7-2.47,11.9-6.44,14.24h0l5.48-3.32a10.5,10.5,0,0,0,1.16-.7l0,0h0C442.36,166.06,444.51,161.34,444.53,154.8Z" style="opacity:0.1"></path><path d="M438.58,158.37c0-14.12-9.88-31.31-22.17-38.41-6-3.46-11.44-3.87-15.46-1.75a12,12,0,0,0-1.09.65h0c-3.57,2.48-5.75,7.23-5.77,13.81C394,146.8,404,164,416.26,171.1c6.21,3.58,11.83,3.9,15.88,1.51S438.56,165.35,438.58,158.37Z" style="fill:#e0e0e0"></path><path d="M419.38,167.78c-11.61-6.71-21-23-21-36.36,0-5.08,1.45-9,4-11.27l-.37.16c-.28.15-.55.31-.82.49l-.11.08c-3,2.13-4.66,6.32-4.67,11.8,0,13.35,9.38,29.65,21,36.36a18.15,18.15,0,0,0,8.78,2.73,9.15,9.15,0,0,0,4.71-1.21,8.87,8.87,0,0,0,1.27-.94,9.18,9.18,0,0,1-4,.89A18.18,18.18,0,0,1,419.38,167.78Z" style="fill:#e0e0e0"></path><path d="M419.38,167.78c-11.61-6.71-21-23-21-36.36,0-5.08,1.45-9,4-11.27l-.37.16c-.28.15-.55.31-.82.49l-.11.08c-3,2.13-4.66,6.32-4.67,11.8,0,13.35,9.38,29.65,21,36.36a18.15,18.15,0,0,0,8.78,2.73,9.15,9.15,0,0,0,4.71-1.21,8.87,8.87,0,0,0,1.27-.94,9.18,9.18,0,0,1-4,.89A18.18,18.18,0,0,1,419.38,167.78Z" style="opacity:0.2"></path><path d="M415.22,122a18.18,18.18,0,0,0-8.79-2.73,9.34,9.34,0,0,0-4,.86c-2.59,2.25-4,6.19-4,11.27,0,13.34,9.38,29.65,21,36.36a18.18,18.18,0,0,0,8.79,2.73,9.18,9.18,0,0,0,4-.89c2.57-2.25,4-6.17,4-11.26C436.24,145,426.83,128.72,415.22,122Z" style="fill:#455a64"></path><path d="M425.57,154.56l-5-4.57a3.85,3.85,0,0,1-1.24-2.62v-.77c3.17.46,5.44-1.73,5.45-5.83,0-5.29-3.71-11.74-8.31-14.39s-8.34-.52-8.36,4.76c0,4.11,2.23,8.9,5.39,12.1V144c0,.88-.51,1.36-1.25,1.17l-5-1.25c-2.5-.62-4.4.67-4.89,3.33l-.06.31c3.8,8.41,10.07,16.1,17.17,20.21a18.18,18.18,0,0,0,8.79,2.73,9.53,9.53,0,0,0,3.21-.55l-.95-6.44A16,16,0,0,0,425.57,154.56Z" style="fill:#407BFF"></path><path d="M367.79,325.37a1,1,0,0,1-.47-.12,1,1,0,0,1-.4-1.33l37.2-68.8a1,1,0,1,1,1.73.94l-37.19,68.79A1,1,0,0,1,367.79,325.37Z" style="fill:#407BFF"></path><path d="M374.45,339.67a1,1,0,0,1-.42-1.88l26.63-12.42a1,1,0,1,1,.83,1.79l-26.63,12.42A1,1,0,0,1,374.45,339.67Z" style="fill:#407BFF"></path><path d="M426.47,281.18a1,1,0,0,1-1-.93l-1.21-20.09a1,1,0,0,1,.92-1,1,1,0,0,1,1.05.92l1.21,20.09a1,1,0,0,1-.92,1.05Z" style="fill:#407BFF"></path><path d="M416.33,204.76h-.17a1,1,0,0,1-.8-1.15l4.72-26.53a1,1,0,0,1,1.94.35L417.3,204A1,1,0,0,1,416.33,204.76Z" style="fill:#407BFF"></path><path d="M388.86,126.22h-.05l-45.48-2a1,1,0,0,1-.94-1,1,1,0,0,1,1-.94l45.48,2a1,1,0,0,1,0,2Z" style="fill:#407BFF"></path><path d="M294.56,115.34a1,1,0,0,1-.24,0l-44.38-10.8a1,1,0,0,1,.47-1.92l44.38,10.8a1,1,0,0,1-.23,2Z" style="fill:#407BFF"></path><path d="M213.3,189.77h-.13a1,1,0,0,1-.85-1.12l5.47-39.23a1,1,0,1,1,2,.28l-5.46,39.23A1,1,0,0,1,213.3,189.77Z" style="fill:#407BFF"></path><path d="M243,283.25a1,1,0,0,1-.87-.51L224,249.31a1,1,0,0,1,1.74-.94l18.17,33.42a1,1,0,0,1-.87,1.46Z" style="fill:#407BFF"></path><path d="M318.31,336.45a1,1,0,0,1-.33-.05l-31.56-11.09a1,1,0,0,1,.66-1.86l31.56,11.09a1,1,0,0,1-.33,1.91Z" style="fill:#407BFF"></path><path d="M325.63,320.33a1,1,0,0,1-.7-.29L239.1,234.62a1,1,0,0,1,0-1.4,1,1,0,0,1,1.39,0l85.83,85.42a1,1,0,0,1-.69,1.69Z" style="fill:#407BFF"></path><path d="M228.79,203a1,1,0,0,1-.78-.39,1,1,0,0,1,.18-1.38l72.51-55.62a1,1,0,1,1,1.2,1.57l-72.51,55.61A1,1,0,0,1,228.79,203Z" style="fill:#407BFF"></path><path d="M398.39,204.76a1,1,0,0,1-.77-.37l-54.48-68.85a1,1,0,0,1,1.55-1.23l54.47,68.85a1,1,0,0,1-.16,1.39A1,1,0,0,1,398.39,204.76Z" style="fill:#407BFF"></path><g style="opacity:0.5"><path d="M367.79,325.37a1,1,0,0,1-.47-.12,1,1,0,0,1-.4-1.33l37.2-68.8a1,1,0,1,1,1.73.94l-37.19,68.79A1,1,0,0,1,367.79,325.37Z" style="fill:#fff"></path><path d="M374.45,339.67a1,1,0,0,1-.42-1.88l26.63-12.42a1,1,0,1,1,.83,1.79l-26.63,12.42A1,1,0,0,1,374.45,339.67Z" style="fill:#fff"></path><path d="M426.47,281.18a1,1,0,0,1-1-.93l-1.21-20.09a1,1,0,0,1,.92-1,1,1,0,0,1,1.05.92l1.21,20.09a1,1,0,0,1-.92,1.05Z" style="fill:#fff"></path><path d="M416.33,204.76h-.17a1,1,0,0,1-.8-1.15l4.72-26.53a1,1,0,0,1,1.94.35L417.3,204A1,1,0,0,1,416.33,204.76Z" style="fill:#fff"></path><path d="M388.86,126.22h-.05l-45.48-2a1,1,0,0,1-.94-1,1,1,0,0,1,1-.94l45.48,2a1,1,0,0,1,0,2Z" style="fill:#fff"></path><path d="M294.56,115.34a1,1,0,0,1-.24,0l-44.38-10.8a1,1,0,0,1,.47-1.92l44.38,10.8a1,1,0,0,1-.23,2Z" style="fill:#fff"></path><path d="M213.3,189.77h-.13a1,1,0,0,1-.85-1.12l5.47-39.23a1,1,0,1,1,2,.28l-5.46,39.23A1,1,0,0,1,213.3,189.77Z" style="fill:#fff"></path><path d="M243,283.25a1,1,0,0,1-.87-.51L224,249.31a1,1,0,0,1,1.74-.94l18.17,33.42a1,1,0,0,1-.87,1.46Z" style="fill:#fff"></path><path d="M318.31,336.45a1,1,0,0,1-.33-.05l-31.56-11.09a1,1,0,0,1,.66-1.86l31.56,11.09a1,1,0,0,1-.33,1.91Z" style="fill:#fff"></path><path d="M325.63,320.33a1,1,0,0,1-.7-.29L239.1,234.62a1,1,0,0,1,0-1.4,1,1,0,0,1,1.39,0l85.83,85.42a1,1,0,0,1-.69,1.69Z" style="fill:#fff"></path><path d="M228.79,203a1,1,0,0,1-.78-.39,1,1,0,0,1,.18-1.38l72.51-55.62a1,1,0,1,1,1.2,1.57l-72.51,55.61A1,1,0,0,1,228.79,203Z" style="fill:#fff"></path><path d="M398.39,204.76a1,1,0,0,1-.77-.37l-54.48-68.85a1,1,0,0,1,1.55-1.23l54.47,68.85a1,1,0,0,1-.16,1.39A1,1,0,0,1,398.39,204.76Z" style="fill:#fff"></path></g></g><g id="freepik--Character--inject-24"><path d="M166.26,278.39c9.17,6.37,19.49,10.77,27.15,19.31,14.3,15.93,14.63,41.58,3.4,59.81s-32.11,29.19-53.38,31.7c-22.31,2.63-45.72-3.54-63.23-17.62S51.56,335.5,51.57,313,63.09,268.2,81.9,255.93c17.17-11.2,41.84-14.39,59.07-1.58,8.7,6.48,14.51,16,23.2,22.53C164.86,277.4,165.56,277.9,166.26,278.39Z" style="fill:#407BFF"></path><path d="M166.26,278.39c9.17,6.37,19.49,10.77,27.15,19.31,14.3,15.93,14.63,41.58,3.4,59.81s-32.11,29.19-53.38,31.7c-22.31,2.63-45.72-3.54-63.23-17.62S51.56,335.5,51.57,313,63.09,268.2,81.9,255.93c17.17-11.2,41.84-14.39,59.07-1.58,8.7,6.48,14.51,16,23.2,22.53C164.86,277.4,165.56,277.9,166.26,278.39Z" style="opacity:0.2"></path><path d="M166.26,278.39c9.17,6.37,19.49,10.77,27.15,19.31,14.3,15.93,14.63,41.58,3.4,59.81s-32.11,29.19-53.38,31.7c-22.31,2.63-45.72-3.54-63.23-17.62S51.56,335.5,51.57,313,63.09,268.2,81.9,255.93c17.17-11.2,41.84-14.39,59.07-1.58,8.7,6.48,14.51,16,23.2,22.53C164.86,277.4,165.56,277.9,166.26,278.39Z" style="fill:#fff;opacity:0.1"></path><path d="M162.53,371.79l-.06-.46a24.12,24.12,0,0,0-19.55-20.1,76.42,76.42,0,0,1-25-9.59c-5.47-3.31-10.64-7.37-16.78-9.16a27.34,27.34,0,0,0-18.09,1c5.16-5.42,14-7.8,21.08-5.36-4.9-7.48-9.2-15.55-10.89-24.34S92.7,285.41,98,278.2a25.8,25.8,0,0,1,39.82-2.13c5.25,5.74,8.2,13.81,11.65,20.79,2.47,5,5,10.13,9.11,13.94,6.16,5.76,15,7.83,21.39,13.34,7.24,6.25,10.36,16.23,10.39,25.79a75.87,75.87,0,0,1-2.8,19.07,72.59,72.59,0,0,1-26.17,16A28.26,28.26,0,0,0,162.53,371.79Z" style="opacity:0.1"></path><path d="M63.55,310a65.55,65.55,0,0,1,55.93-63.66,46.45,46.45,0,0,1,6.33,1.06A63.93,63.93,0,0,0,65.28,310c-.41,20.91,9.82,42.22,27.36,57,13.74,11.59,32,19.27,52.08,22l-1.29.17q-2.7.32-5.43.45c-17.83-3.45-34-10.8-46.48-21.34C73.59,353.2,63.13,331.38,63.55,310Z" style="fill:#fff"></path><path d="M185.9,364.8a63.33,63.33,0,0,0-1.12,10.43l-2.47-.93a6.39,6.39,0,0,0-6.88,1.56l-.12.13a2.49,2.49,0,0,1-3.44.16h0a2.51,2.51,0,0,1-.86-1.8l-.33-10.54Z" style="fill:#ffa8a7"></path><path d="M176.34,404c5.14,5.5,14.6,10.3,21.47,5.61l-.77,1.75c-6.87,4.69-16.33-.12-21.47-5.61s-1.8-9.3-6.42-14.17a16.81,16.81,0,0,1-4-5.94c.21-.53.4-1.21.64-2a21.15,21.15,0,0,0,4.13,6.18C174.54,394.65,171.21,398.46,176.34,404Z" style="fill:#fff"></path><path d="M168.33,377.86a10,10,0,0,0,1.61-3.75,2.16,2.16,0,0,1,1-1.53l0,1.77a2.5,2.5,0,0,0,4.3,1.64l.12-.13a6.39,6.39,0,0,1,6.88-1.56l2.51.95a1.93,1.93,0,0,1,1.25,1.85c-.16,7.2,3.21,16.77,6.73,22,3.63,1.5,6.77,6.44,5.17,10.07l-.16.36c-6.87,4.69-16.33-.11-21.47-5.61s-1.8-9.3-6.42-14.17a21.15,21.15,0,0,1-4.13-6.18A22.38,22.38,0,0,1,168.33,377.86Z" style="fill:#37474f"></path><path d="M178.37,388.26a.88.88,0,0,1-.8-1.56,10,10,0,0,1,9.86,0c.16.57.32,1.14.49,1.7A9.65,9.65,0,0,0,178.37,388.26Z" style="fill:#fff"></path><path d="M177.11,384.36a.88.88,0,0,1-.81-1.56,10.56,10.56,0,0,1,10.27.08c.1.59.22,1.18.35,1.77C183.93,383.07,180.91,382.44,177.11,384.36Z" style="fill:#fff"></path><path d="M179.76,392.13a.88.88,0,0,1-.81-1.56,10,10,0,0,1,9.66-.09c.22.61.45,1.21.69,1.79A9.68,9.68,0,0,0,179.76,392.13Z" style="fill:#fff"></path><path d="M192.8,399.13c3.63,1.5,6.77,6.44,5.17,10.07l-.16.36c-6.77,4.62-16,0-21.23-5.37C180.91,395.71,190,397.83,192.8,399.13Z" style="fill:#fff"></path><path d="M181.28,395.92a.87.87,0,0,1-1.16-.4.86.86,0,0,1,.35-1.16,10,10,0,0,1,9.68-.09c.31.67.62,1.32.94,1.94C188.1,394.63,185.08,394,181.28,395.92Z" style="fill:#fff"></path><path d="M196.69,385.74a64,64,0,0,0,3.19,10l-2.64.15a6.38,6.38,0,0,0-5.66,4.2l-.06.17a2.49,2.49,0,0,1-3.08,1.53h0a2.53,2.53,0,0,1-1.51-1.3L182.37,391Z" style="fill:#ffa8a7"></path><path d="M203.75,425.42c6.92,3,17.51,3.53,21.91-3.53v1.91c-4.4,7.06-15,6.49-21.91,3.53s-5.4-7.78-11.59-10.37a16.73,16.73,0,0,1-6.06-3.82c0-.56-.12-1.27-.21-2.08a21.19,21.19,0,0,0,6.27,4C198.35,417.64,196.84,422.47,203.75,425.42Z" style="fill:#fff"></path><path d="M185.89,404.78a10.07,10.07,0,0,0,0-4.08,2.16,2.16,0,0,1,.32-1.81l.76,1.6a2.53,2.53,0,0,0,1.51,1.3,2.49,2.49,0,0,0,3.08-1.53l.06-.17a6.38,6.38,0,0,1,5.66-4.2l2.69-.15a1.93,1.93,0,0,1,1.89,1.19c2.76,6.65,9.7,14.05,15.05,17.43,3.92-.09,8.79,3.17,8.79,7.14v.39c-4.4,7.06-15,6.49-21.91,3.53s-5.4-7.78-11.59-10.37a21.19,21.19,0,0,1-6.27-4A22.52,22.52,0,0,1,185.89,404.78Z" style="fill:#37474f"></path><path d="M199.28,410.24a.88.88,0,0,1-1.37-1.1,10,10,0,0,1,9-4q.56.68,1.14,1.35A9.67,9.67,0,0,0,199.28,410.24Z" style="fill:#fff"></path><path d="M196.55,407.19a.88.88,0,0,1-1.23.11.87.87,0,0,1-.14-1.21,10.54,10.54,0,0,1,9.43-4.07c.33.5.68,1,1,1.47C202.27,403.26,199.25,403.9,196.55,407.19Z" style="fill:#fff"></path><path d="M202.11,413.23a.88.88,0,0,1-1.37-1.1,10,10,0,0,1,8.8-4c.45.47.9.93,1.35,1.37A9.68,9.68,0,0,0,202.11,413.23Z" style="fill:#fff"></path><path d="M216.87,414.36c3.92-.09,8.79,3.17,8.79,7.14v.39c-4.33,7-14.67,6.5-21.59,3.66C204.61,416,213.73,414.33,216.87,414.36Z" style="fill:#fff"></path><path d="M205,416.08a.88.88,0,0,1-1.37-1.1,10,10,0,0,1,8.82-4c.55.5,1.1,1,1.65,1.39C210.75,412.15,207.73,412.79,205,416.08Z" style="fill:#fff"></path><path d="M156.06,295.77l34.62,19.29a17.16,17.16,0,0,1,8.52,18.12l-6.72,36.19,7,21.41C192.8,399.13,180,397.9,180,397.9c-6.09-12.21-8.25-21.72-11.71-31.95s-5.77-17.29-5.77-17.29l-28.75-7.86a34.07,34.07,0,0,1-24.91-29c-.49-4.35-.52-7.32-.52-7.32Z" style="fill:#455a64"></path><path d="M155.8,305.5a16.31,16.31,0,0,1-3.88,10.55l24.44,15.29a17.58,17.58,0,0,1,7.47,9.75l8.65,28.28-7.8-31.49a14.3,14.3,0,0,0-6.35-8.71l-22.56-13.94C158.08,309.46,155.8,305.5,155.8,305.5Z" style="opacity:0.2"></path><path d="M177.36,262.76c-3.53,9.46-15.52,7-15.52,7C161.23,257.08,177.36,262.76,177.36,262.76Z" style="fill:#263238"></path><path d="M152.31,236.29h.89c6,.06,13.55,4.13,17.25,14.57l14.37,27.83L168.41,286l-9-26.26Z" style="fill:#ffa8a7"></path><path d="M163.83,254.76c1.15,3.28,1.22,6.83,1.4,10.3s.58,7.68,2.17,10.77a9.88,9.88,0,0,1,11.82.43,9,9,0,0,1,2.66,3.74l-13.47,6-9-26.26L155,245.22A16.78,16.78,0,0,1,163.83,254.76Z" style="opacity:0.2"></path><path d="M168.26,281a9.82,9.82,0,0,1,7.42-6,10.48,10.48,0,0,1,9.14,3.75c1.79,2.16,1.51,5.08.38,7.65a9.56,9.56,0,0,1-10.94,5.19C170,290.35,166.67,285.05,168.26,281Z" style="fill:#ffa8a7"></path><path d="M152.31,236.29c7.15-.8,16.15,2.5,25.05,26.47-11.59.29-15.52,7-15.52,7C156.6,256.46,150.71,238,150.71,238Z" style="fill:#455a64"></path><path d="M152.31,236.29c7.15-.8,16.15,2.5,25.05,26.47-11.59.29-15.52,7-15.52,7C156.6,256.46,150.71,238,150.71,238Z" style="fill:#fff;opacity:0.2"></path><path d="M107.81,307.19c6.14,5.9,35.64,7,50.69-7.34-1.44-10.12-1-21,0-31.67s7.23-29.46-4.73-31.64c-16-3.12-24.05-.25-37.09,3.14C105.28,258.67,106.85,287.08,107.81,307.19Z" style="fill:#407BFF"></path><path d="M107.81,307.19c6.14,5.9,35.64,7,50.69-7.34-1.44-10.12-1-21,0-31.67s7.23-29.46-4.73-31.64c-16-3.12-24.05-.25-37.09,3.14C105.28,258.67,106.85,287.08,107.81,307.19Z" style="fill:#fff;opacity:0.2"></path><path d="M131.35,229.67a8.76,8.76,0,0,1-4.81-5.48,26,26,0,0,1-1.05-7.42q-.36-8.69-.74-17.37c-.1-2.34-.17-4.81,1-6.86a6.39,6.39,0,0,1,9.51-1.93c2.33-4.64,7.77-7.89,12.91-7.12,3,.44,5.75,2,8.41,3.48l8.69,4.92c1.82,1,3.71,2.13,4.79,3.91a8.22,8.22,0,0,1,.9,5.45,24.47,24.47,0,0,1-1.64,5.37,28.46,28.46,0,0,1-2.84,5.91,9.7,9.7,0,0,1-5.06,4c-6.86,2-12.17,7.62-18.37,11.2a25,25,0,0,1-5.33,2.54A11,11,0,0,1,131.35,229.67Z" style="fill:#263238"></path><path d="M146.8,231.07l-.62,6.93a2.6,2.6,0,0,0,.39,1.53,3.9,3.9,0,0,1-.61,4.52,5.19,5.19,0,0,1-3.09,1,15,15,0,0,1-11.45-4.41,3.26,3.26,0,0,1-.91-2.37l.46-17.57Z" style="fill:#ffa8a7"></path><path d="M131,220.75l15.83,10.32-.55,6.15c-3.36-.79-6.73-1.76-9.39-3.92C133.48,230.55,130.51,227.83,131,220.75Z" style="opacity:0.30000000000000004"></path><path d="M164.81,206a62,62,0,0,1-5.68,23.4,19.1,19.1,0,0,1-2.73,4.53,8,8,0,0,1-4.44,2.74c-2.14.4-4.31-.36-6.35-1.1-3.74-1.36-7.58-2.77-10.58-5.39s-5-6.75-4-10.6a6.82,6.82,0,0,1-6.48-.77,6.91,6.91,0,0,1-2.56-6.05c.23-2.21,1.93-4.43,4.15-4.49a4.79,4.79,0,0,1,3.55,1.75,14.49,14.49,0,0,1,2.07,3.5,4.58,4.58,0,0,0,1.05,1.61,1.6,1.6,0,0,0,1.8.3,2.39,2.39,0,0,0,.85-1.87l.64-5a2,2,0,0,1,1.43-1.65,5,5,0,0,0,2.66-2.16,10.21,10.21,0,0,0,1.15-2.87,1.23,1.23,0,0,1,1.85-.75C149.37,205,157.64,206.56,164.81,206Z" style="fill:#ffa8a7"></path><polygon points="151.8 216.1 154.94 224.38 149.46 224.45 151.8 216.1" style="fill:#f28f8f"></polygon><path d="M143.89,226.14l3.69,2.66a2.67,2.67,0,0,1-3.21.34A2.4,2.4,0,0,1,143.89,226.14Z" style="fill:#f28f8f"></path><path d="M143.89,226.14l3.69,2.66a2.67,2.67,0,0,1-3.21.34A2.4,2.4,0,0,1,143.89,226.14Z" style="opacity:0.30000000000000004"></path><path d="M145.74,229.52a2.44,2.44,0,0,1-1.37-.38,2.18,2.18,0,0,1-.71-2.32,2.62,2.62,0,0,1,1.49.83A2.58,2.58,0,0,1,145.74,229.52Z" style="fill:#f28f8f"></path><path d="M144.06,215.05A1.55,1.55,0,1,0,146,214,1.55,1.55,0,0,0,144.06,215.05Z" style="fill:#263238"></path><path d="M156.71,218.09a1.55,1.55,0,1,0,1.91-1.07A1.55,1.55,0,0,0,156.71,218.09Z" style="fill:#263238"></path><path d="M158.32,214l3.52,2.24a2.2,2.2,0,0,0-.76-2.4A2.61,2.61,0,0,0,158.32,214Z" style="fill:#263238"></path><path d="M147.62,211l-4.14.5a2.21,2.21,0,0,1,1.73-1.84A2.61,2.61,0,0,1,147.62,211Z" style="fill:#263238"></path><path d="M165.36,204.61a6.22,6.22,0,0,1-4.26,5.13l1.23-2.54a13.55,13.55,0,0,1-7.35,2.63,7.6,7.6,0,0,0,2.65-3,20.72,20.72,0,0,1-9.58,3.58,13.81,13.81,0,0,0,5.37-3.77,13,13,0,0,1-8.71,2.3l2.39-2.8a13.58,13.58,0,0,1-7.77,1.42l2.85-2.78-4.27.75a34,34,0,0,0,1.89-6.66,39.11,39.11,0,0,1,12.84,1.1C156.88,201,161.26,203.06,165.36,204.61Z" style="fill:#263238"></path><path d="M151.34,306.48v0h0v0s0,0,0-.06,0,0,0-.05,0,0,0-.05l0-.06,0-.05,0-.06h0l10.74-20,1.47,1.68-10.74,20a1,1,0,0,0-.13.37h0a.29.29,0,0,0,0,.23h0l-1.47-1.69a.2.2,0,0,1,0-.08.15.15,0,0,1,0-.07Z" style="fill:#fff;opacity:0.15"></path><path d="M162.25,286l0-.06,0-.06,0-.06,0-.06a.43.43,0,0,1,0-.07l.05-.06.05-.07,0-.06,0-.05,0-.05,0,0,0,0,0,0,0,0,0,0,0,0,0,0,0,0,0,0,0,0,0,0,0,0,0,0,0,0,0,0,0,0,0,0,0,0,0,0,0,0,0,0,0,0,0,0,0,0,0,0,.15-.13,0,0,0,0,0,0,0,0,0,0,0,0,0,0h0l0,0,0,0,0,0h0l0,0,0,0,0,0h0l0,0,0,0,0,0,0,0,0,0,0,0,0,0,0,0,0,0,0,0,.06,0,0,0,.06,0,.06,0,.07,0,.07-.05,0,0,12.34-6.94,0,0,.07,0,.07,0,.07,0,.07,0,.06,0,.07,0,.06,0,.07,0,.07,0h.23a.25.25,0,0,1,.18.07l1.47,1.69c-.06-.08-.19-.1-.36-.06h0a2.75,2.75,0,0,0-.67.28l-12.35,6.95a5.24,5.24,0,0,0-.7.46h0c-.23.18-.46.38-.68.58h0c-.21.21-.41.42-.58.62h0a3.68,3.68,0,0,0-.41.58l-1.47-1.68Z" style="fill:#fff;opacity:0.2"></path><path d="M108.78,245.06a10,10,0,0,1,7.9-5.38l2.08,3.17A26.34,26.34,0,0,1,122,255.76l-.37,33.35h0l2.45,1a99.15,99.15,0,0,0,21.45,6.48A21.28,21.28,0,0,1,159,292l-1.82,3.39c3.45,2.21,11.24-1.77,11.24-1.77.58,4.86-2.57,9.91-6.75,12.46s-44-1.19-52.5-6.67c-5.56-3.6-4.25-38-4.25-38A28.73,28.73,0,0,1,108.78,245.06Z" style="fill:#ffa8a7"></path><path d="M176.88,283.58a22.49,22.49,0,0,1,.46,4,14.55,14.55,0,0,1-3.85,8.53,4.34,4.34,0,0,1-1.65,1.17,1.94,1.94,0,0,1-1.92-.3,2.9,2.9,0,0,1-.67-2,10.92,10.92,0,0,1,.17-3.23,4.53,4.53,0,0,1,1.71-2.68,10,10,0,0,1,2.16-1,5.22,5.22,0,0,0,1.92-1.39Z" style="fill:#ffa8a7"></path><path d="M116.68,239.68c-9.59.91-14.9,7.55-12.55,36.92,6.81,4.41,18.84.65,18.84.65C125,245.09,119.8,241.56,116.68,239.68Z" style="fill:#455a64"></path><path d="M116.68,239.68c-9.59.91-14.9,7.55-12.55,36.92,6.81,4.41,18.84.65,18.84.65C125,245.09,119.8,241.56,116.68,239.68Z" style="fill:#fff;opacity:0.2"></path><path d="M151.34,306.53a.15.15,0,0,0,0,.07.2.2,0,0,0,0,.08l1.47,1.69h0s0-.08,0-.12c0,.26.43.25,1.07-.1l12.35-6.95a6.9,6.9,0,0,0,2.36-2.24l10.74-20c.18-.33.17-.53,0-.62h0L178,276.67a.25.25,0,0,0-.18-.07h-.23l-.07,0-.07,0-.06,0-.07,0-.06,0-.07,0-.07,0-.07,0-.07,0,0,0-12.34,6.94,0,0-.07.05-.07,0-.06,0-.06,0,0,0-.06,0,0,0,0,0,0,0,0,0,0,0,0,0,0,0,0,0,0,0,0,0h0l0,0,0,0,0,0h0l0,0,0,0,0,0h0l0,0,0,0,0,0,0,0,0,0,0,0,0,0-.15.13,0,0,0,0,0,0,0,0,0,0,0,0,0,0,0,0,0,0,0,0,0,0,0,0,0,0,0,0,0,0,0,0,0,0,0,0,0,0,0,0,0,0,0,0,0,0,0,0,0,0,0,.05,0,.05,0,.06-.05.07-.05.06a.43.43,0,0,0,0,.07l0,.06,0,.06,0,.06,0,.06,0,.06-10.74,20h0l0,.06,0,.05,0,.06s0,0,0,.05,0,0,0,.05,0,0,0,.06v0h0v.07ZM179,278.32l0,0h0s0,0,.08,0Zm-14.36,8.25h0l.34-.29Zm-.58.62h0l.15-.16Zm-11.28,20.95h0a1,1,0,0,1,.13-.37,1,1,0,0,0-.13.4S152.81,308.15,152.82,308.14Z" style="fill:#263238"></path></g><g id="freepik--speech-bubble--inject-24"><path d="M337.4,61.64Z" style="fill:none"></path><path d="M343.92,60.45a5.31,5.31,0,0,0-1.93-2L315.56,43.34c-2.32-1.33-7.8.47-7.8,4.19V62.78a5.16,5.16,0,0,0,2.6,4.48l20.4,11.66h0l-3.52-2,1.69,4.8a.28.28,0,0,0,.35.17v0c.3-.15,1.63-.87,2.39-1.37h0l.05,0h0s0,0,.06-.06l.42-.67,4.59,2.62a5.1,5.1,0,0,0,7.8-4.19V63A5.25,5.25,0,0,0,343.92,60.45Z" style="fill:#407BFF"></path><path d="M331.78,80.41s0,0-.06.06h0l-.05,0h0c-.76.5-2.09,1.22-2.39,1.37v0a.27.27,0,0,0,.16-.12l1.64-2.65-.32-.18h0l1.44.82Z" style="fill:#fff;opacity:0.2"></path><path d="M338.78,63.37a5.13,5.13,0,0,0-1.38-1.73h0a3.89,3.89,0,0,0-.63-.43L310.34,46a1.72,1.72,0,0,0-2.58,1.49c0-3.72,5.48-5.52,7.8-4.19L342,58.5a5.31,5.31,0,0,1,1.93,2Z" style="fill:#fff;opacity:0.4"></path><path d="M339.37,80.87V65.68a4.18,4.18,0,0,0-.05-.61,5,5,0,0,0-.54-1.7l5.14-2.92a5.25,5.25,0,0,1,.67,2.53V78.17a5.1,5.1,0,0,1-7.8,4.19A1.72,1.72,0,0,0,339.37,80.87Z" style="fill:#fff;opacity:0.2"></path><path d="M316.9,59.32a4,4,0,0,1,1.92,3.29c0,1.28-.84,1.71-1.93,1.08A4.06,4.06,0,0,1,315,60.38C315,59.07,315.81,58.69,316.9,59.32Z" style="fill:#fff"></path><path d="M323,62.88a4,4,0,0,1,1.92,3.28c0,1.29-.85,1.72-1.94,1.09a4.08,4.08,0,0,1-1.92-3.31C321.06,62.63,321.9,62.25,323,62.88Z" style="fill:#fff"></path><path d="M329.07,66.44A4,4,0,0,1,331,69.72c0,1.28-.84,1.72-1.93,1.09a4.08,4.08,0,0,1-1.92-3.31C327.14,66.19,328,65.81,329.07,66.44Z" style="fill:#fff"></path><path d="M438.65,261h0Z" style="fill:none"></path><path d="M443.51,260.1a3.83,3.83,0,0,0-1.43-1.45l-19.71-11.31c-1.73-1-5.81.35-5.81,3.13v11.37a3.85,3.85,0,0,0,1.94,3.34l15.2,8.69h0l-2.62-1.5,1.26,3.57a.2.2,0,0,0,.26.13v0c.23-.12,1.22-.65,1.78-1h0l0,0h0l.05,0,.31-.5,3.42,2a3.8,3.8,0,0,0,5.81-3.13V262A3.84,3.84,0,0,0,443.51,260.1Z" style="fill:#407BFF"></path><path d="M434.47,275l-.05,0h0l0,0h0c-.56.37-1.55.9-1.78,1v0a.18.18,0,0,0,.12-.09l1.22-2-.24-.14h0l1.08.61Z" style="fill:#fff;opacity:0.2"></path><path d="M439.69,262.28a3.92,3.92,0,0,0-1-1.29h0a5.33,5.33,0,0,0-.46-.32l-19.71-11.3a1.28,1.28,0,0,0-1.92,1.11c0-2.78,4.08-4.12,5.81-3.13l19.71,11.31a3.83,3.83,0,0,1,1.43,1.45Z" style="fill:#fff;opacity:0.4"></path><path d="M440.12,275.33V264a3.4,3.4,0,0,0,0-.45,3.93,3.93,0,0,0-.4-1.27l3.82-2.18A3.84,3.84,0,0,1,444,262v11.32a3.8,3.8,0,0,1-5.81,3.13A1.28,1.28,0,0,0,440.12,275.33Z" style="fill:#fff;opacity:0.2"></path><path d="M423.37,259.26a3,3,0,0,1,1.43,2.45c0,1-.63,1.28-1.44.81a3.06,3.06,0,0,1-1.43-2.47C421.93,259.07,422.56,258.79,423.37,259.26Z" style="fill:#fff"></path><path d="M427.91,261.91a3,3,0,0,1,1.43,2.45c0,1-.63,1.28-1.44.81a3,3,0,0,1-1.43-2.47C426.47,261.72,427.1,261.44,427.91,261.91Z" style="fill:#fff"></path><path d="M432.45,264.57a3,3,0,0,1,1.43,2.44c0,1-.63,1.28-1.44.81a3,3,0,0,1-1.43-2.47C431,264.38,431.63,264.1,432.45,264.57Z" style="fill:#fff"></path><path d="M224.68,176.06Z" style="fill:none"></path><path d="M230.29,175a4.36,4.36,0,0,0-1.65-1.68L205.88,160.3c-2-1.14-6.72.41-6.72,3.62V177a4.45,4.45,0,0,0,2.24,3.86l17.56,10h0l-3-1.74,1.46,4.13a.23.23,0,0,0,.3.15v0c.26-.13,1.41-.75,2.06-1.18h0l0,0h0l.06-.05.35-.58,4,2.26a4.39,4.39,0,0,0,6.71-3.62V177.22A4.41,4.41,0,0,0,230.29,175Z" style="fill:#407BFF"></path><path d="M219.85,192.23l-.06.05h0l0,0h0c-.65.43-1.8,1.05-2.06,1.18v0a.2.2,0,0,0,.14-.1l1.41-2.28-.28-.16h0l1.24.71Z" style="fill:#fff;opacity:0.2"></path><path d="M225.87,177.55a4.39,4.39,0,0,0-1.19-1.49h0a4,4,0,0,0-.54-.37l-22.76-13.06a1.48,1.48,0,0,0-2.22,1.29c0-3.21,4.72-4.76,6.72-3.62l22.76,13.06a4.36,4.36,0,0,1,1.65,1.68Z" style="fill:#fff;opacity:0.4"></path><path d="M226.37,192.62V179.54a4.53,4.53,0,0,0,0-.52,4.44,4.44,0,0,0-.47-1.47l4.42-2.51a4.41,4.41,0,0,1,.58,2.18v13.07a4.39,4.39,0,0,1-6.71,3.62A1.48,1.48,0,0,0,226.37,192.62Z" style="fill:#fff;opacity:0.2"></path><path d="M207,174.07a3.39,3.39,0,0,1,1.65,2.82c0,1.11-.72,1.48-1.66.94a3.48,3.48,0,0,1-1.65-2.85C205.37,173.85,206.09,173.53,207,174.07Z" style="fill:#fff"></path><path d="M212.27,177.13a3.44,3.44,0,0,1,1.66,2.83c0,1.1-.73,1.48-1.67.93a3.47,3.47,0,0,1-1.65-2.85C210.61,176.91,211.33,176.59,212.27,177.13Z" style="fill:#fff"></path><path d="M217.51,180.2a3.43,3.43,0,0,1,1.66,2.82c0,1.1-.73,1.48-1.67.94a3.51,3.51,0,0,1-1.65-2.85C215.85,180,216.58,179.65,217.51,180.2Z" style="fill:#fff"></path><path d="M341,271.58l24,13.77a4.69,4.69,0,0,1,1.74,1.77,4.64,4.64,0,0,1,.61,2.29v17.46a4.63,4.63,0,0,1-7.08,3.81l-4.17-2.38-.37.61a.2.2,0,0,1-.07.06h0l-.05,0h0c-.69.46-1.89,1.1-2.16,1.24v0a.25.25,0,0,1-.32-.15l-1.53-4.36h0L336.23,297a4.67,4.67,0,0,1-2.36-4.06V275.39C333.87,272,338.85,270.38,341,271.58Z" style="fill:#407BFF"></path><path d="M360.77,288.19h0Z" style="fill:none"></path><path d="M355.68,308.91a.2.2,0,0,1-.07.06h0l-.05,0h0c-.69.46-1.89,1.1-2.16,1.24v0a.2.2,0,0,0,.15-.1l1.49-2.41-.29-.17h0l1.3.75Z" style="fill:#fff;opacity:0.2"></path><path d="M362,289.76a4.75,4.75,0,0,0-1.25-1.57h0a4.63,4.63,0,0,0-.56-.39l-24-13.77a1.57,1.57,0,0,0-2.34,1.36c0-3.38,5-5,7.08-3.81l24,13.77a4.69,4.69,0,0,1,1.74,1.77Z" style="fill:#fff;opacity:0.4"></path><path d="M362.56,309.33V291.86a3.39,3.39,0,0,0,0-.55,4.75,4.75,0,0,0-.49-1.55l4.66-2.64a4.64,4.64,0,0,1,.61,2.29v17.46a4.63,4.63,0,0,1-7.08,3.81A1.56,1.56,0,0,0,362.56,309.33Z" style="fill:#fff;opacity:0.2"></path><path d="M344.25,282.53a3,3,0,0,0-2.92-.29c-1.61.91-1.62,3.91,0,6.68l.93,1.63,5.8,10.05,5.84-3.33.94-.54c1.62-.92,1.63-3.91,0-6.69A8.43,8.43,0,0,0,352,287a2.92,2.92,0,0,0-2.91-.3l-1,.54-.94-1.62A8.38,8.38,0,0,0,344.25,282.53Z" style="fill:#fff"></path><path d="M230.59,53.14,250,64.29a3.72,3.72,0,0,1,1.41,1.43,3.81,3.81,0,0,1,.49,1.85V81.71a3.75,3.75,0,0,1-5.73,3.09l-3.37-1.93-.31.49s0,0,0,0h0l0,0h0c-.56.37-1.54.9-1.76,1v0a.21.21,0,0,1-.26-.12l-1.24-3.53h0l-12.4-7.08a3.81,3.81,0,0,1-1.91-3.3V56.22C224.86,53.49,228.89,52.16,230.59,53.14Z" style="fill:#407BFF"></path><path d="M246.64,66.59Z" style="fill:none"></path><path d="M242.51,83.36s0,0,0,0h0l0,0h0c-.56.37-1.54.9-1.76,1v0a.16.16,0,0,0,.12-.08L242,82.4l-.24-.14h0l1.06.61Z" style="fill:#fff;opacity:0.2"></path><path d="M247.66,67.86a3.92,3.92,0,0,0-1-1.27h0a3.76,3.76,0,0,0-.46-.32L226.75,55.13a1.26,1.26,0,0,0-1.89,1.09c0-2.73,4-4.06,5.73-3.08L250,64.29a3.72,3.72,0,0,1,1.41,1.43Z" style="fill:#fff;opacity:0.4"></path><path d="M248.08,83.7V69.56a3.4,3.4,0,0,0,0-.45,3.88,3.88,0,0,0-.39-1.25l3.77-2.14a3.81,3.81,0,0,1,.49,1.85V81.71a3.75,3.75,0,0,1-5.73,3.09A1.26,1.26,0,0,0,248.08,83.7Z" style="fill:#fff;opacity:0.2"></path><path d="M233.26,62a2.36,2.36,0,0,0-2.36-.24c-1.31.74-1.32,3.16,0,5.41l.76,1.32,4.7,8.13,4.73-2.69.76-.44c1.31-.74,1.32-3.17,0-5.41a6.66,6.66,0,0,0-2.36-2.48,2.36,2.36,0,0,0-2.36-.24l-.76.43-.76-1.31A6.72,6.72,0,0,0,233.26,62Z" style="fill:#fff"></path><path d="M419.08,81.41l19.5,11.19A3.77,3.77,0,0,1,440,94a3.85,3.85,0,0,1,.49,1.86v14.19a3.76,3.76,0,0,1-5.75,3.1l-3.38-1.94-.31.5a.1.1,0,0,1-.05,0h0l0,0h0c-.56.37-1.54.89-1.76,1v0a.2.2,0,0,1-.26-.13l-1.24-3.53h0l-12.45-7.11a3.81,3.81,0,0,1-1.92-3.31V84.51C413.33,81.76,417.37,80.43,419.08,81.41Z" style="fill:#407BFF"></path><path d="M435.19,94.91h0Z" style="fill:none"></path><path d="M431.05,111.75a.1.1,0,0,1-.05,0h0l0,0h0c-.56.37-1.54.89-1.76,1v0a.2.2,0,0,0,.12-.08l1.21-2-.24-.14h0l1.07.61Z" style="fill:#fff;opacity:0.2"></path><path d="M436.21,96.19a3.8,3.8,0,0,0-1-1.28h0a3.76,3.76,0,0,0-.46-.32l-19.5-11.18a1.27,1.27,0,0,0-1.9,1.1c0-2.75,4-4.08,5.75-3.1l19.5,11.19A3.77,3.77,0,0,1,440,94Z" style="fill:#fff;opacity:0.4"></path><path d="M436.64,112.08V97.9a3.19,3.19,0,0,0,0-.45,3.87,3.87,0,0,0-.4-1.26L440,94a3.85,3.85,0,0,1,.49,1.86v14.19a3.76,3.76,0,0,1-5.75,3.1A1.27,1.27,0,0,0,436.64,112.08Z" style="fill:#fff;opacity:0.2"></path><path d="M429.28,99.44a1.18,1.18,0,0,1,.54.92l0,5.3c0,.34-.24.48-.53.31l-2.65-1.53a1.18,1.18,0,0,1-.54-.92v-5.3c0-.34.24-.48.53-.31Zm-1.65,4.86c.31.18.56,0,.56-.32a1.23,1.23,0,0,0-.56-1c-.31-.18-.56,0-.56.32a1.23,1.23,0,0,0,.56,1" style="fill:#407BFF"></path><g style="opacity:0.5"><path d="M429.28,99.44a1.18,1.18,0,0,1,.54.92l0,5.3c0,.34-.24.48-.53.31l-2.65-1.53a1.18,1.18,0,0,1-.54-.92v-5.3c0-.34.24-.48.53-.31Zm-1.65,4.86c.31.18.56,0,.56-.32a1.23,1.23,0,0,0-.56-1c-.31-.18-.56,0-.56.32a1.23,1.23,0,0,0,.56,1" style="fill:#fff"></path></g><path d="M423.93,90.51c-1.15-.67-2.08-.08-2,1.29L422,94,419,92.19c-1.06-.6-1.28.8-.57,1.79-.72.21-.51,1.44.14,2.22-.6.27-.07,1.65.66,2.23-.48.19-.07,1.68.78,2.16l3,1.75,1.91,1.11c.65.38,1.18.07,1.19-.68v-4.4l-1.21-2.94a11.86,11.86,0,0,1-1-4.44Z" style="fill:#fff"></path><path d="M262.14,260.32l13.18,7.56a2.49,2.49,0,0,1,1,1,2.6,2.6,0,0,1,.33,1.26v9.59a2.54,2.54,0,0,1-3.88,2.09l-2.29-1.31-.21.34,0,0h0l0,0h0c-.38.25-1,.61-1.19.69h0a.14.14,0,0,1-.17-.09l-.84-2.39h0l-8.42-4.81a2.57,2.57,0,0,1-1.29-2.23v-9.62C258.26,260.55,261,259.66,262.14,260.32Z" style="fill:#407BFF"></path><path d="M273,269.44Z" style="fill:none"></path><path d="M270.23,280.82l0,0h0l0,0h0c-.38.25-1,.61-1.19.69h0a.15.15,0,0,0,.09-.06l.81-1.33-.16-.09h0l.72.41Z" style="fill:#fff;opacity:0.2"></path><path d="M273.72,270.3a2.48,2.48,0,0,0-.69-.86h0a2.11,2.11,0,0,0-.31-.21l-13.18-7.56a.85.85,0,0,0-1.28.74c0-1.86,2.73-2.75,3.88-2.09l13.18,7.56a2.49,2.49,0,0,1,1,1Z" style="fill:#fff;opacity:0.4"></path><path d="M274,281.05v-9.59a1.62,1.62,0,0,0,0-.31,2.63,2.63,0,0,0-.27-.85l2.56-1.45a2.6,2.6,0,0,1,.33,1.26v9.59a2.54,2.54,0,0,1-3.88,2.09A.85.85,0,0,0,274,281.05Z" style="fill:#fff;opacity:0.2"></path><path d="M269,272.5a.81.81,0,0,1,.36.63v3.58c0,.23-.16.32-.36.2l-1.79-1a.79.79,0,0,1-.36-.62v-3.58c0-.23.16-.33.36-.21Zm-1.12,3.29c.21.12.38,0,.38-.22a.83.83,0,0,0-.38-.65c-.21-.12-.38,0-.38.21a.86.86,0,0,0,.38.66" style="fill:#407BFF"></path><g style="opacity:0.5"><path d="M269,272.5a.81.81,0,0,1,.36.63v3.58c0,.23-.16.32-.36.2l-1.79-1a.79.79,0,0,1-.36-.62v-3.58c0-.23.16-.33.36-.21Zm-1.12,3.29c.21.12.38,0,.38-.22a.83.83,0,0,0-.38-.65c-.21-.12-.38,0-.38.21a.86.86,0,0,0,.38.66" style="fill:#fff"></path></g><path d="M265.42,266.46c-.78-.45-1.4,0-1.36.88l.08,1.47-2.09-1.21c-.71-.41-.86.54-.38,1.21-.49.14-.35,1,.09,1.5-.4.18,0,1.12.45,1.51-.32.13,0,1.13.53,1.46l2,1.18,1.3.75c.44.26.8.05.8-.46v-3l-.82-2a7.93,7.93,0,0,1-.65-3Z" style="fill:#fff"></path><path d="M106.18,144.27h0Z" style="fill:none"></path><path d="M99,143a5.75,5.75,0,0,1,2.12-2.15l34.56-20.17c2.55-1.47,8.6.52,8.6,4.62v37.5a5.68,5.68,0,0,1-2.87,4.94l-22.49,12.86h0l3.88-2.22-1.86,5.29a.32.32,0,0,1-.39.19v0c-.33-.17-1.8-1-2.63-1.51h0l-.05,0h0s0,0-.07-.06l-.46-.75-10.47,6.35a5.62,5.62,0,0,1-8.6-4.62V145.75A5.7,5.7,0,0,1,99,143Z" style="fill:#407BFF"></path><path d="M117.78,182.21s0,0,.07.06h0s0,0,.05,0h0c.83.55,2.3,1.34,2.63,1.51v0a.29.29,0,0,1-.18-.13l-1.81-2.93.36-.2h0l-1.59.91Z" style="fill:#fff;opacity:0.2"></path><path d="M104.65,146.18a5.87,5.87,0,0,1,1.52-1.91h0a4.24,4.24,0,0,1,.69-.48l34.56-20.17a1.89,1.89,0,0,1,2.84,1.64c0-4.1-6.05-6.09-8.6-4.62l-34.56,20.17A5.75,5.75,0,0,0,99,143Z" style="fill:#fff;opacity:0.4"></path><path d="M104,186.17V148.73c0-.23,0-.45,0-.67a5.91,5.91,0,0,1,.6-1.88L99,143a5.7,5.7,0,0,0-.74,2.79v37.44a5.62,5.62,0,0,0,8.6,4.62A1.9,1.9,0,0,1,104,186.17Z" style="fill:#fff;opacity:0.2"></path><path d="M124.86,161.58c1.79-1,3.24-.21,3.25,1.85a7.13,7.13,0,0,1-3.23,5.59c-1.78,1-3.23.19-3.24-1.86A7.08,7.08,0,0,1,124.86,161.58Z" style="fill:#fff"></path><path d="M124.84,154.48c2.34-1.36,4.59-1.79,6.48-1.22l-2.12,4.45a5.7,5.7,0,0,0-4.35.85,13.79,13.79,0,0,0-4.33,4.16l-2.14-2A20.58,20.58,0,0,1,124.84,154.48Z" style="fill:#fff"></path><path d="M124.83,148.37c3.49-2,6.85-2.66,9.67-1.82L132.38,151c-2.21-.64-4.81-.15-7.54,1.42a24.32,24.32,0,0,0-7.54,7.28l-2.14-2A30.9,30.9,0,0,1,124.83,148.37Z" style="fill:#fff"></path><path d="M124.81,142.26c4.67-2.7,9.12-3.54,12.88-2.44l-2.11,4.45c-3.15-.91-6.86-.21-10.76,2a34.48,34.48,0,0,0-10.74,10.37l-2.13-2A41,41,0,0,1,124.81,142.26Z" style="fill:#fff"></path></g></svg>